/* XPM */
static char *_ede2211c0ba469fa8ee08f3f3f3525aDjk5Y3OqOu3fGCPY[] = {
/* columns rows colors chars-per-pixel */
"64 64 131 2 ",
"   c None",
".  c #030202",
"X  c #090604",
"o  c #0D0805",
"O  c #140C06",
"+  c #190E07",
"@  c #160E09",
"#  c #190F08",
"$  c #16110B",
"%  c #1D110A",
"&  c #191817",
"*  c #24150B",
"=  c #28170C",
"-  c #25190F",
";  c #2C1A0E",
":  c #321D0E",
">  c #241B11",
",  c #2D1D11",
"<  c #341E11",
"1  c #2E2114",
"2  c #362113",
"3  c #3C2313",
"4  c #3F2817",
"5  c #362A1A",
"6  c #2B2A29",
"7  c #342921",
"8  c #353332",
"9  c #422614",
"0  c #462815",
"q  c #4B2B15",
"w  c #452918",
"e  c #4B2C19",
"r  c #512E17",
"t  c #522F19",
"y  c #43311E",
"u  c #55311A",
"i  c #5B351B",
"p  c #61371C",
"a  c #663A1D",
"s  c #693C1F",
"d  c #4C3321",
"f  c #4C3823",
"g  c #4D392B",
"h  c #5A3620",
"j  c #523821",
"k  c #523E2B",
"l  c #433B37",
"z  c #553F32",
"x  c #643A21",
"c  c #6B3E21",
"v  c #623F29",
"b  c #5A4329",
"n  c #43413F",
"m  c #504137",
"M  c #5C423A",
"N  c #6E4024",
"B  c #69472A",
"V  c #624A2E",
"C  c #6C4A2C",
"Z  c #734324",
"A  c #794626",
"S  c #7E4927",
"D  c #7A4728",
"F  c #7E4929",
"G  c #674536",
"H  c #694F31",
"J  c #6F5334",
"K  c #715535",
"L  c #7D5130",
"P  c #775A37",
"I  c #464442",
"U  c #4D4B49",
"Y  c #514F4D",
"T  c #565351",
"R  c #6D4F47",
"E  c #71524A",
"W  c #686562",
"Q  c #834D2A",
"!  c #884F2B",
"~  c #8C522D",
"^  c #90542F",
"/  c #8A5332",
"(  c #82533B",
")  c #935630",
"_  c #975831",
"`  c #9C5B33",
"'  c #83633D",
"]  c #8C653E",
"[  c #A4663A",
"{  c #8D6A42",
"}  c #8B6941",
"|  c #936F45",
" . c #957046",
".. c #9B7649",
"X. c #9C7649",
"o. c #986C5C",
"O. c #AB7143",
"+. c #AC7042",
"@. c #AC7546",
"#. c #A87F4F",
"$. c #B37A49",
"%. c #B57F4C",
"&. c #B67F4C",
"*. c #B1824F",
"=. c #B8814E",
"-. c #AA8050",
";. c #AC8251",
":. c #AE8351",
">. c #B38754",
",. c #BA8C57",
"<. c #BD8F59",
"1. c #87827F",
"2. c #AF8073",
"3. c #C0915A",
"4. c #C1925A",
"5. c #C5955C",
"6. c #C7955C",
"7. c #C8975D",
"8. c #C9985E",
"9. c #C8985E",
"0. c #CC8C73",
"q. c #898481",
"w. c #8D8985",
"e. c #948F8C",
"r. c #CB9485",
"t. c #D29989",
"y. c #D69C8C",
"u. c #DDA191",
"i. c #E5A796",
"p. c #E7A897",
"a. c #CEC7C3",
/* pixels */
"                                          < 2 3 2 *                                                                             ",
"                                      % c / Q Q ) / i X                                                                         ",
"                                    % A c 4 H ' ] L / x .                           o 2 w * .                                   ",
"                                    w F < #.6.9.4.{ j ^ < * ; ; ; : ; ; ; *     O w A Z x x i 3                                 ",
"                                    x p y 8.5.| w 2 q s p p p s a N F ~ ~ ~ D t = e 0 < H | ' C 2                               ",
"                                    i a 2 | f 9 u p a a a s s Z ~ ` ` ` ` ` ` ` ~ h % P 8.7.7.3.B                               ",
"                                    ; s 0 - i a s a a a a s S ` ` ` ` ` ` ` ` ` ` ` ! 4 J 3.8.8.b                               ",
"                                    o : q a a a s a a a a Z ` ` ` ` ` ` ` ` ` ` ` ` ` ` w K 6.:.$                               ",
"                                      O i a a a a a a a s ) ` ` ` ` ` ` ` ` ` ` ` ` ` ` / w } 5                                 ",
"                                    X q a a a a a a a a Z ` ` ` ` ` ` ` ` ` ` ` ` ` ` ` ` D .                                   ",
"                                    ; a a a a a a a 3 o . ; ~ ` ` ` ` ` ` ` ` ` ` ` ` ` ` ` <                                   ",
"                                  o q a a a a a a q . . . . 0 ` ` ` ` ` ` ` ` ` _ u 3 u ) ` F .                                 ",
"                                  + p a a a a a a q . . . . 3 ` ` ` ` ` ` ` ` ` 4 . . . 3 ` ` %                                 ",
"                                  : a a a a a a a p 9 O o 2 ~ ` ` ` ` ` ` ` ` ^ % . . . % ~ ` <                                 ",
"                                . q a a a a a a a a a i i ` ` ` ` ` ` ` ` [ ` ` u . . . u ` ` 9                                 ",
"                                X i a a a a a a a a a a p Z +.$.=.=.=.@.[ [ ` ` ` F p F ` ` ` t                                 ",
"                                : a a a a a a a a a a 9 b 4.8.8.9.f . . > } 5.>.C Q ` ` ` ` ` p                                 ",
"                              O i a a a a a a a a a a * :.7.8.8.9., . . . K 9.9.>.t ^ ` ` ` ` N                                 ",
"                            . u a a a a a a a a a a p * X.7.8.8.9.-., & } <.9.9.<.f Q ` ` ` ` Q .                               ",
"                          . 9 u i a a a a a a a a a a u - k J V k k z g H ..,.;.b w ` ` ` ` ^ ` %                               ",
"                        . X + * p a a a a a a a a a a a i * i * o.u.p.y.o.B 1 e x ) ` _ ` _ Z Q u                               ",
"                            . 9 a p a a a a a a a a a a a < A < y.p.p.p.0./ 2 ` ` ` ` N u A s + < O                             ",
"                            o 3 : 9 0 q i 9 p a a a a a a 0 i x E p.p.u.( h i ` ` D ~ u O q t .                                 ",
"                            . X X + + * * + ; 3 a a a a a p ; _ h M R G F 3 ! ` ` e u * : ; # .                                 ",
"                            . = < 0 r + < i < a a a a s Q ! q q ` _ ) ` < u ` ` ` c O q i ; A x X                               ",
"                          . 3 p s a a p a a a a a c ! ` ` ` ^ c w w w w ! ` ` ` ` ^ c a a ! ` ` F %                             ",
"                          % a a a a a a a a a a s ^ ` ` ` ` ` ` _ ) / ` ` ` ` ` ` ~ u a a S ` ` ` A o                           ",
"                        . i a a a a a a a a a a Q ` ` ` ` ` ` ` ` ` ` ` ` ` ` ` ` F ; t a a Q ` ` ` Z .                         ",
"                        = a a a a a r : a a a s ^ ` ` ` ` ` ` ` ` ` ` ` ` ` ` ` ` Z X O : 9 q q c Z ` <                         ",
"                      . 0 a a a a a 3 9 a a a s _ ` ` ` ` ` ` ` ` ` ` ` ` ` ` ` ` x     . X + q x x ) t                         ",
"                      . p a a a a a < 9 a a u q r p S ` ` ` ` ` ` ` ` ` ` ` ` ` ` w       ; p a a A ` #                         ",
"                      o a a a a a a p 9 : ; 0 s c c i : ^ ` ` ` ` ` ` ` ` ` ` ` ` <   o 9 a a p S _ 4                           ",
"                      O a a a a a a a s Z Z Z s a a s 0 s ` ` ` ` ` ` ` ` ` ` ` ~ %   # p a x Q ) t .                           ",
"                      o a a a a a a a a a a a a a a a 0 i ` ` ` ` ` ` ` ` ` ` ` c     O q p Q N *                               ",
"                      . 3 a a a a a a a a a a a a a q ; ` ` ` ` ` ` ` ` ` ` ` ` ,       o O X                                   ",
"                        O q p a s a a a a a a p i : < ~ ` ` ` ` ` ` ` ` ` ` ` D o                                               ",
"                          + 9 q r u i i i r q * * S ` ` ` ` ` ` ` ` ` ` ` ` ) >                                                 ",
"                            . O + + + + + + = q Z ` ` ` ` ` ` ` ` ` ` ` ` ` e                                                   ",
"                            . 3 r r q r i i a a c ) ` ` ` ` ` ` ` ` ` ` ` Q #                                                   ",
"                            . q a a a p a a a a a c Q ` ` ` ` ` ` ` ` ` ! *                                                     ",
"                            . q a a a a a a a a a a a Z Q ^ ` ` ` ` ` ` e X                                                     ",
"                            . q a a a a a a a a a a a a a a ^ ` ` ` ` ` w                                                       ",
"                              9 a a a a a a a 9 3 9 3 3 a a a _ ` ` ` ` x @                                                     ",
"                              : a a a a a a p q o     . i p a Z ` ` ` ` ) ;                                                     ",
"                            . * a a a a a a p +         * a a a Q ` ` ` ` e                                                     ",
"                            . i p a a a a p *             3 a a a ) ` ` ` Z                                                     ",
"                            + i a a a a p =               . 9 a a Z ~ ` ` Q @                                                   ",
"                            < a a a a p =                   X : p a c Z Z c #                                                   ",
"                            r a a a a :                         % a a a a a %                                                   ",
"                          . p a a a r O                         = a a a a i #                                                   ",
"                          X a a a a :                         . u a a a a t o                                                   ",
"                          @ a a a i %                         ; a a a a p =                                                     ",
"                          @ a a a q                         X u a a a a < X                                                     ",
"                          % p p a 3                         * a a a a i X                                                       ",
"                          X + % @ @                         q a a a a :                                                         ",
"                            6 n & U                       X 9 a a a Q ! w ,                                                     ",
"                                                            % q p Z ` ` ` ^ u @                                                 ",
"                                                              % 3 i ^ ` ` ` ` Q e                                               ",
"                                                                  * i ` ` ` ~ ` ` x ,                                           ",
"                                                                    ; Z ` ` x e ) Z u                                           ",
"                                                                    O t ~ ` ` u < d 7 8                                         ",
"                                                                      * c N m W T w.q.U                                         ",
"                                                                        % $ q.a.e.Y U                                           ",
"                                                                            6 I 8                                               "
};
