/* XPM */
static char *_34f6479404a4306895feffb0b3e460fmAS8f0STqI66oCfT[] = {
/* columns rows colors chars-per-pixel */
"64 64 169 2 ",
"   c None",
".  c #000000",
"X  c #090102",
"o  c #0A0B03",
"O  c #040C09",
"+  c #150305",
"@  c #1C0307",
"#  c #131504",
"$  c #161906",
"%  c #1B1F07",
"&  c #141C1E",
"*  c #240409",
"=  c #2B050A",
"-  c #3C070E",
";  c #34060D",
":  c #2A2F0A",
">  c #232709",
",  c #30350C",
"<  c #353A0D",
"1  c #003434",
"2  c #002828",
"3  c #4C0812",
"4  c #420710",
"5  c #590A16",
"6  c #510913",
"7  c #640B18",
"8  c #760D1C",
"9  c #3E450F",
"0  c #525C14",
"q  c #5D6816",
"w  c #566015",
"e  c #646F18",
"r  c #6A7619",
"t  c #543F7D",
"y  c #5C3E7A",
"u  c #005151",
"i  c #52407F",
"p  c #446871",
"a  c #820E1F",
"s  c #840E20",
"d  c #9C1125",
"f  c #A11227",
"g  c #A71329",
"h  c #BD152E",
"j  c #B6142C",
"k  c #C2152F",
"l  c #CC1631",
"z  c #C71630",
"x  c #D41733",
"c  c #D71834",
"v  c #DC1835",
"b  c #DE1B3B",
"n  c #E51937",
"m  c #E51C39",
"M  c #E92B2F",
"N  c #EA392B",
"B  c #E72434",
"V  c #E6213E",
"C  c #E82C33",
"Z  c #E93432",
"A  c #EA3830",
"S  c #F1561A",
"D  c #FA7C02",
"F  c #F6750D",
"G  c #F1731A",
"H  c #F67912",
"J  c #EC4529",
"K  c #EF5925",
"L  c #F05D29",
"P  c #F26D26",
"I  c #F37C24",
"U  c #F37424",
"Y  c #9C2C5A",
"T  c #8B3163",
"R  c #C62247",
"E  c #CA2044",
"W  c #E72542",
"Q  c #E72B47",
"!  c #E82E49",
"~  c #E8324C",
"^  c #E93B55",
"/  c #EA435C",
"(  c #F06541",
")  c #EB4C64",
"_  c #ED5D72",
"`  c #EB5268",
"'  c #EF6B7E",
"]  c #EE6478",
"[  c #7A881D",
"{  c #82901F",
"}  c #8C9C22",
"|  c #96A724",
" . c #99AB25",
".. c #A9BC29",
"X. c #A2B427",
"o. c #FA8204",
"O. c #FA8A04",
"+. c #FA8F09",
"@. c #FB9609",
"#. c #F78512",
"$. c #F78E1E",
"%. c #F99618",
"&. c #FBA904",
"*. c #FBA815",
"=. c #FCB412",
"-. c #FDB41B",
";. c #FDB91D",
":. c #FBB402",
">. c #F58021",
",. c #F89F24",
"<. c #F69933",
"1. c #F7A62D",
"2. c #F7AC2C",
"3. c #F8AF2C",
"4. c #FBB923",
"5. c #F7AA33",
"6. c #FBBB35",
"7. c #F7B538",
"8. c #F8BD3B",
"9. c #F8B438",
"0. c #ACC029",
"q. c #B6CA2B",
"w. c #BED42D",
"e. c #FBC00A",
"r. c #FCC117",
"t. c #C1D72E",
"y. c #FCCB2D",
"u. c #FCC122",
"i. c #FCD32D",
"p. c #FBCA3A",
"a. c #FCD939",
"s. c #FDE539",
"d. c #F8BB42",
"f. c #F8BC4E",
"g. c #F9A85C",
"h. c #F8C343",
"j. c #FBCC47",
"k. c #FAD546",
"l. c #FCC254",
"z. c #FCE542",
"x. c #FDED46",
"c. c #FDED48",
"v. c #FDF24B",
"b. c #FDF650",
"n. c #FDEC65",
"m. c #38478A",
"M. c #0055A5",
"N. c #4F7D87",
"B. c #4B7F88",
"V. c #EF7080",
"C. c #009494",
"Z. c #309197",
"A. c #00A8A8",
"S. c #00B1B0",
"D. c #15A3A5",
"F. c #F18191",
"G. c #F28C9B",
"H. c #F499A6",
"J. c #F6ADB8",
"K. c #FDD588",
"L. c #FAD2D8",
"P. c #FBD9DE",
"I. c #F9C6CE",
"U. c #FEF3DB",
"Y. c #FCE4E8",
"T. c #FDEEF0",
"R. c #FEF4F5",
"E. c #FFFFFF",
"W. c #FFFBF3",
/* pixels */
"                                                                                                                                ",
"                                                                                                                                ",
"                                                                                                                                ",
"                                                                                                                                ",
"                                                                                                                                ",
"                                                                                                                                ",
"                                                                                                                                ",
"                                                                                                                                ",
"                                                                                                                                ",
"                                                                                                                                ",
"                                                                                                                                ",
"                                                                                                                                ",
"                                                                                                                                ",
"                                                                                                                                ",
"                                                                                                                                ",
"                                                                                                                                ",
"                                                                                                                                ",
"                                                                                                                                ",
"                                                                                                                                ",
"                                                                                                                                ",
"                                                                                                                                ",
"                                                                                                                                ",
"                                                                                                                                ",
"                                                    n n n n n n n n n n                               D                         ",
"                                              n n n n n n n n n n n n n n n n                     D D D                         ",
"                                          n n n n n n n V ^ ! m ^ ~ m n n n n n n                 D D D                         ",
"                                        n n m m Q ` G.P.R.E.G.W L.E.R.J.] Q m n n n                 D D                         ",
"                                    n n m m ) H.P.R.E.E.E.E.G.W L.E.E.E.E.P.H./ m n n n           D D D D D                     ",
"                                  n m m Q V.Y.E.E.E.E.E.E.E.G.W L.E.E.E.E.E.E.P.] n n n n     D D o.+.D D D                     ",
"                                n n m ^ Y.E.E.E.E.E.E.E.E.E.G.W L.E.E.E.E.E.E.E.R.H.W n M N   D D O.=.%.o.D D                   ",
"                              n n n ] Y.E.E.E.E.E.E.E.E.E.E.G.W L.E.E.E.E.E.E.E.E.E.H.V M S N D O.@.-.-.*.+.o.                  ",
"                            n n n F.T.E.E.E.E.E.E.E.E.E.E.E.G.W L.E.E.E.E.E.E.E.E.E.W.J.B N M F +.-.y.4.4.=.O.O.                ",
"                          n n m ) E.E.E.E.E.E.E.E.E.E.E.E.E.G.W L.E.E.E.E.E.E.E.E.E.E.E.V.K S H %.;.a.u.4.-.@.@.                ",
"                          n n ^ L.E.E.E.E.E.E.E.E.E.E.E.E.E.G.W L.E.E.E.E.E.E.E.E.E.E.E.T.L #.#.1.4.x.y.i.=.y.&.@.              ",
"                        n n m H.E.E.E.E.E.E.E.E.E.E.E.E.E.E.G.W L.E.E.E.E.E.E.E.E.E.E.U.R.g.5.1.5.3.a.b.b.a.z.4.=.              ",
"                        n n ~ P.E.E.E.E.E.E.E.E.E.E.E.E.E.E.G.W L.E.E.E.E.E.E.E.E.E.E.l.K.9.h.9.h.9.a.b.b.x.a.x.=.&.            ",
"                      n n n ' R.E.E.E.E.E.E.E.E.E.E.E.E.E.E.G.W L.E.E.E.E.E.E.E.E.E.E.h.6.p.j.7.h.h.k.v.v.v.c.v.r.&.&.          ",
"                      n n n I.E.E.E.E.E.E.E.E.E.E.E.E.E.E.E.G.W L.E.E.E.E.E.E.E.E.E.E.U.j.h.n.h.j.h.h.z.x.v.c.c.i.:.            ",
"                    n n n n _ ' ' ' ' ' ' ' ' ' ' ' ' ' ' ' / m _ ' ' ' ' ' ' ' ' ' ' ' <.3.k.h.d.d.h.h.j.j.a.z.s.e.            ",
"                n n n n n m m E R R b n n n n n n n n n n n n n b R R E b n n n n n n n G @.7.p.8.p.8.8.8.p.p.p.i.e.            ",
"            n n n n n n n n t M.M.M.t n n n n n n n n n n n n b m.M.M.M.y n n n n n n n M G 3.d.8.7.8.7.8.7.d.f.1.J             ",
"          n n n n n n n n n Y t t t Y n n n n n n n n n n n m n T t m.y Y n n n n n n n n m K 3.f.d.8.7.d.d.f.1.A m n m         ",
"          n n n n n n n n n n n n n n n n n n n n n n n n n n n n n n n n n n n n n n n n n m N I 5.7.7.7.1.I A n n n m         ",
"        n n n n n n n m v j f g h m n n n n n n n n n n n n n n n n n n n n n n n n n n n v h f g h n n n n n n n Z J Z n       ",
"      n n n n n n n z s - * + @ * 5 f c n n n n n n n n n n n n n n n n n n n n n n n x 8 4 * @ + * 3 d x n n n A I $.>.Z n     ",
"      n n n n n n l - . . . . . . . + 7 v m n n n n n n n n n n n n n n n n n n n n k 6 . . . . . . . X 8 v n n P $.$.$.L n     ",
"      n n n n n j = . . . . . . . . . . 7 x n n n n n n n n n n n n n n n n n n n l = . . . . . . . . . . - n m P $.$.$.L n     ",
"    n n n n n c - . . . . . . . . . . . . 8 n n n n n n n n n n n n n n n n n n n 4 . . . . . . . . . . . . a v C U >.U C n n   ",
"    n n n n n f X . . . . . . . . . . . . * l n n n n n n n n n n n n n n n n n d . . . . . . . . . . . . . * h m B Z B n n n   ",
"    n n n n n ; . . . . o 0  .[ , . . . . . d n n n n n n n n n n n n n n n n n 3 . . . . o 9 | } < . . . . . 8 m m n n n n n   ",
"    n n m n c X . . . . e w.t.t.q.# . . . . 5 n n n n n n n n n n n n n n n n n * . . . . 0 w.t.t.q., . . . . 3 n n n n n n n   ",
"  D.B.N.N.N.p . . . . $ ..t.t.t.t.w . . . . ; n n n n n n n n n n n n n n n n n X . . . o | t.t.t.w.[ . . . . & N.N.N.N.N.N.N.Z.",
"S.S.S.S.S.S.C.. . . . % ..t.t.t.t.q . . . . = n n n n n n n n n n n n n n n n n . . . . #  .t.t.t.t.[ . . . . 2 S.S.S.S.S.S.S.S.",
"S.S.S.S.S.S.A.. . . . o | w.t.t.t., . . . . 3 n n n n n n n n n n n n n n n n n + . . . . [ t.t.t.t.0 . . . . 1 S.S.S.S.S.S.S.S.",
"  S.S.S.S.S.S.O . . . . # { q.X.q . . . . .                                     X . . . . $ r q...e X . . . . u S.S.S.S.S.S.S.S.",
"                . . . . . # : > o . . . . .                                       . . . . . o : : o . . . . .                   ",
"                . . . . . . . . . . . . . .                                       . . . . . . . . . . . . .                     ",
"                  . . . . . . . . . . . .                                           . . . . . . . . . . . .                     ",
"                    . . . . . . . . . .                                               . . . . . . . . . .                       ",
"                      . . . . . . .                                                     . . . . . . . .                         ",
"                                                                                                                                ",
"                                                                                                                                ",
"                                                                                                                                ",
"                                                                                                                                "
};
