/* XPM */
static char *_aac5df78ad443fd84ac455d76f7d740vlV4NNgynkjitUQj[] = {
/* columns rows colors chars-per-pixel */
"64 64 173 2 ",
"   c None",
".  c #000000",
"X  c #090102",
"o  c #0A0B03",
"O  c #040C09",
"+  c #150305",
"@  c #1C0307",
"#  c #131504",
"$  c #161906",
"%  c #1B1F07",
"&  c #141C1E",
"*  c #240409",
"=  c #2B050A",
"-  c #3C070E",
";  c #34060D",
":  c #262B09",
">  c #30350C",
",  c #353A0D",
"<  c #003434",
"1  c #002828",
"2  c #4C0812",
"3  c #420710",
"4  c #590A16",
"5  c #510913",
"6  c #640B18",
"7  c #760D1C",
"8  c #3E450F",
"9  c #525C14",
"0  c #5D6816",
"q  c #566015",
"w  c #6A7619",
"e  c #646F18",
"r  c #543F7D",
"t  c #5C3E7A",
"y  c #005151",
"u  c #52407F",
"i  c #446871",
"p  c #820E1F",
"a  c #840E20",
"s  c #9C1125",
"d  c #A11227",
"f  c #A71329",
"g  c #BD152E",
"h  c #B6142C",
"j  c #C2152F",
"k  c #CC1631",
"l  c #C71630",
"z  c #D41733",
"x  c #D71834",
"c  c #DC1835",
"v  c #DE1B3B",
"b  c #E51937",
"n  c #E51B39",
"m  c #EA3C2C",
"M  c #E72535",
"N  c #E82D32",
"B  c #E6213E",
"V  c #E93432",
"C  c #EA3830",
"Z  c #EF5B1E",
"A  c #FA7C02",
"S  c #F37918",
"D  c #F26817",
"F  c #EF5D27",
"G  c #F05D29",
"H  c #EC472D",
"J  c #F26D26",
"K  c #F37C24",
"L  c #F37424",
"P  c #9C2C5A",
"I  c #8B3163",
"U  c #C62247",
"Y  c #CA2044",
"T  c #E72542",
"R  c #E72B47",
"E  c #E82E49",
"W  c #E8324C",
"Q  c #E93B55",
"!  c #EA435C",
"~  c #EB4C64",
"^  c #ED5D72",
"/  c #EB5268",
"(  c #EF6B7E",
")  c #EE6478",
"_  c #F07373",
"`  c #7A881D",
"'  c #82901F",
"]  c #8C9C22",
"[  c #96A724",
"{  c #99AB25",
"}  c #A9BC29",
"|  c #A2B427",
" . c #FA8303",
".. c #FA8A04",
"X. c #F78F0D",
"o. c #F6870C",
"O. c #FA9304",
"+. c #FA9B05",
"@. c #FC950D",
"#. c #F78E1E",
"$. c #F58813",
"%. c #F79A13",
"&. c #F7911C",
"*. c #FBA805",
"=. c #FBB402",
"-. c #F7A214",
";. c #FDAC16",
":. c #FCA413",
">. c #FCB412",
",. c #FDB41B",
"<. c #FDBA1D",
"1. c #F58021",
"2. c #F79B23",
"3. c #F7AC2C",
"4. c #F7A72F",
"5. c #FDBF20",
"6. c #F8B02E",
"7. c #F9BC36",
"8. c #F8BC3C",
"9. c #F7B239",
"0. c #F7AD33",
"q. c #ACC029",
"w. c #B6CA2B",
"e. c #BED42D",
"r. c #FBC209",
"t. c #FCC117",
"y. c #C1D72E",
"u. c #FCC223",
"i. c #FCCC2C",
"p. c #FCD42B",
"a. c #F9C13C",
"s. c #FACC38",
"d. c #FCD639",
"f. c #FCDD3A",
"g. c #FCD734",
"h. c #FDE63D",
"j. c #FDE036",
"k. c #F8BB42",
"l. c #F9BA4E",
"z. c #F8C242",
"x. c #F9CA42",
"c. c #FBDF46",
"v. c #FBD351",
"b. c #FDED45",
"n. c #FDEE48",
"m. c #FDE443",
"M. c #FDF24B",
"N. c #FDF650",
"B. c #FDE754",
"V. c #FCD975",
"C. c #38478A",
"Z. c #0055A5",
"A. c #4F7D87",
"S. c #4B7F88",
"D. c #EF7083",
"F. c #009494",
"G. c #309197",
"H. c #00A8A8",
"J. c #00B1B0",
"K. c #15A3A5",
"L. c #F18191",
"P. c #F28C9B",
"I. c #F499A6",
"U. c #F8B2A0",
"Y. c #F6ADB8",
"T. c #FDDFC8",
"R. c #FAD2D8",
"E. c #FBD9DE",
"W. c #F9C6CE",
"Q. c #FCE4E8",
"!. c #FDEEF0",
"~. c #FEF4F5",
"^. c #FFFFFF",
/* pixels */
"                                                                                                                                ",
"                                                                                                                                ",
"                                                                                                                                ",
"                                                                                                                                ",
"                                                                                                                                ",
"                                                                                                                                ",
"                                                                                                                                ",
"                                                                                                                                ",
"                                                                                                                                ",
"                                                                                                                                ",
"                                                                                                                                ",
"                                                                                                                                ",
"                                                                                                                                ",
"                                                                                                                                ",
"                                                                                                                                ",
"                                                                                                                                ",
"                                                                                                                                ",
"                                                                                                                                ",
"                                                                                                                                ",
"                                                                                                          A                     ",
"                                                                                                      A A A                     ",
"                                                                                                      A A A                     ",
"                                                                                                      A A A                     ",
"                                                    b b b b b b b b b b                                 A A                     ",
"                                              b b b b b b b b b b b b b b b b                         A A A A A                 ",
"                                          b b b b b b b B Q E n Q W n b b b b b b                 A A  .@.A A A                 ",
"                                        b b b n R / P.E.~.^.P.T R.^.~.Y.) R n b b b               A A o.;.@.A  .A               ",
"                                    b b n n ~ I.E.~.^.^.^.^.P.T R.^.^.^.^.E.I.! n b b b        .   . .@.5.,.:.@. .              ",
"                                  b n n R L.Q.^.^.^.^.^.^.^.P.T R.^.^.^.^.^.^.E.^ b b b b         ..O.,.i.<.5.;.....            ",
"                                b b n Q Q.^.^.^.^.^.^.^.^.^.P.T R.^.^.^.^.^.^.^.^.I.T b b b     O.+.;.<.d.u.5.;.O.O.            ",
"                              b b b ) Q.^.^.^.^.^.^.^.^.^.^.P.T R.^.^.^.^.^.^.^.^.^.I.n b b b   +.*.5.u.n.i.p.<.i.:.+.          ",
"                            b b b L.!.^.^.^.^.^.^.^.^.^.^.^.P.T R.^.^.^.^.^.^.^.^.^.~.Y.b N n D i.i.i.p.f.N.M.g.h.u.>.          ",
"                          b b b ~ ^.^.^.^.^.^.^.^.^.^.^.^.^.P.T R.^.^.^.^.^.^.^.^.^.^.^.D.S Z o.7.f.b.f.h.N.N.M.g.b.>.*.        ",
"                          b b Q R.^.^.^.^.^.^.^.^.^.^.^.^.^.P.T R.^.^.^.^.^.^.^.^.^.^.^.Q.&.X.X.6.d.M.b.M.M.M.M.M.M.t.=.=.      ",
"                        b b n I.^.^.^.^.^.^.^.^.^.^.^.^.^.^.P.T R.^.^.^.^.^.^.^.^.^.^.^.^.U.$.%.z.x.b.b.b.b.b.b.b.b.p.=.        ",
"                        b b W E.^.^.^.^.^.^.^.^.^.^.^.^.^.^.P.T R.^.^.^.^.^.^.^.^.^.^.^.^.T.2.%.k.z.m.b.M.b.b.b.b.b.p.=.        ",
"                      b b b ( ^.^.^.^.^.^.^.^.^.^.^.^.^.^.^.P.T R.^.^.^.^.^.^.^.^.^.^.^.^.^.l.-.a.z.x.b.b.h.b.b.b.h.h.r.        ",
"                      b b b W.~.^.^.^.^.^.^.^.^.^.^.^.^.^.^.P.T R.^.^.^.^.^.^.^.^.^.^.^.^.^.V.-.8.8.8.f.h.h.h.h.h.h.f.r.        ",
"                    b b b b ^ ( ( ( ( ( ( ( ( ( ( ( ( ( ( ( ! n ^ ( ( ( ( ( ( ( ( ( ( ( ( ( _ S 3.k.8.a.s.s.d.d.m.B.p.          ",
"                b b b b n n n Y U U v b b b b b b b b b b b n b v U U Y v b b b b b b b b b b n F 6.l.k.8.7.k.z.v.g.            ",
"            b b b b b b b b r Z.Z.Z.r n b b b b b b b b b b b v C.Z.Z.Z.t b b b b b b b b b b b n m L 4.9.7.9.4.K m             ",
"          b b b b b b b b b P r r r P b b b b b b b b b b b b n I r C.t P b b b b b b b b b b b b b n b b b b b b b b b         ",
"          b b b b b b b b b b b b b b b b b b b b b b b b b b b b b b b b b b b b b b b b b b b b b b b b b b b b b b b         ",
"        b b b b b b b n c h d f g n b b b b b b b b b b b b b b b b b b b b b b b b b b b c g d d g b b b b b b b V H N b       ",
"      b b b b b b b l a - * + @ * 4 d x b b b b b b b b b b b b b b b b b b b b b b b z 7 3 * @ @ * 2 s z b b b C 1.1.1.V b     ",
"      b b b b b b k - . . . . . . . + 6 c b b b b b b b b b b b b b b b b b b b b b j 5 . . . . . . . X 7 c b b L #.&.#.G b     ",
"      b b b b b h = . . . . . . . . . . 6 z b b b b b b b b b b b b b b b b b b b k = . . . . . . . . . . - b b J 2.#.#.G b     ",
"    b b b b b x - . . . . . . . . . . . . 7 b b b b b b b b b b b b b b b b b b b 3 . . . . . . . . . . . . p c N J 1.L N b b   ",
"    b b b b b d X . . . . . . . . . . . . * k b b b b b b b b b b b b b b b b b d . . . . . . . . . . . . . * g b M V M b b b   ",
"    b b b b b ; . . . . o 9 { ` > . . . . . s b b b b b b b b b b b b b b b b b 2 . . . . o 8 { ] , . . . . . 7 b b b b b b b   ",
"    b b n b x X . . . . e e.y.y.w.# . . . . 4 b b b b b b b b b b b b b b b b b @ . . . . 9 w.y.y.w.> . . . . 2 b b b b b b b   ",
"  K.S.A.A.A.i . . . . $ } y.y.y.y.q . . . . ; b b b b b b b b b b b b b b b b b o . . . o [ y.y.y.e.` . . . . & A.A.A.A.A.A.A.G.",
"J.J.J.J.J.J.F.. . . . % } y.y.y.y.0 . . . . = b b b b b b b b b b b b b b b b b . . . . # { y.y.y.y.` . . . . 1 J.J.J.J.J.J.J.J.",
"J.J.J.J.J.J.H.. . . . o [ e.y.y.y.> . . . . 2 b b b b b b b b b b b b b b b b b + . . . . ` y.y.y.y.9 . . . . < J.J.J.J.J.J.J.J.",
"  J.J.J.J.J.J.O . . . . # ' w.| 0 . . . . .                                     X . . . . % w w.} e o . . . . y J.J.J.J.J.J.J.J.",
"                . . . . . # : : o . . . . .                                       . . . . . o : : o . . . . .                   ",
"                . . . . . . . . . . . . . .                                       . . . . . . . . . . . . .                     ",
"                  . . . . . . . . . . . .                                           . . . . . . . . . . . .                     ",
"                    . . . . . . . . . .                                               . . . . . . . . . .                       ",
"                      . . . . . . .                                                     . . . . . . . .                         ",
"                                                                                                                                ",
"                                                                                                                                ",
"                                                                                                                                ",
"                                                                                                                                "
};
