/* XPM */
static char *_d273165369641ccaa633f6e8c7092bbMue5P8Z2oAWfkDyp[] = {
/* columns rows colors chars-per-pixel */
"64 64 180 2 ",
"   c None",
".  c #000000",
"X  c #090102",
"o  c #0A0B03",
"O  c #040C09",
"+  c #150305",
"@  c #1C0307",
"#  c #131504",
"$  c #161906",
"%  c #1B1F07",
"&  c #141C1E",
"*  c #240409",
"=  c #2B050A",
"-  c #3C070E",
";  c #34060D",
":  c #262B09",
">  c #30350C",
",  c #353A0D",
"<  c #003434",
"1  c #002828",
"2  c #4C0812",
"3  c #420710",
"4  c #560915",
"5  c #640B18",
"6  c #760D1C",
"7  c #3E450F",
"8  c #525C14",
"9  c #5B6516",
"0  c #6A7619",
"q  c #646F18",
"w  c #543F7D",
"e  c #5C3E7A",
"r  c #005151",
"t  c #52407F",
"y  c #446871",
"u  c #820E1F",
"i  c #840E20",
"p  c #9C1125",
"a  c #A11227",
"s  c #A71329",
"d  c #BD152E",
"f  c #B6142C",
"g  c #C2152F",
"h  c #CC1631",
"j  c #C71630",
"k  c #D41733",
"l  c #D71834",
"z  c #DC1835",
"x  c #DE1B3B",
"c  c #E51937",
"v  c #E51B39",
"b  c #EA3C2C",
"n  c #E9362E",
"m  c #E6213E",
"M  c #E72936",
"N  c #E93432",
"B  c #EA3830",
"V  c #FA7D04",
"C  c #FA7F09",
"Z  c #EE5928",
"A  c #EE522B",
"S  c #EF6822",
"D  c #F26D26",
"F  c #F37B24",
"G  c #F37424",
"H  c #9C2C5A",
"J  c #8B3163",
"K  c #C62247",
"L  c #CA2044",
"P  c #E72542",
"I  c #E72B47",
"U  c #E82E49",
"Y  c #E8324C",
"T  c #E93B55",
"R  c #EA435C",
"E  c #EA454E",
"W  c #EB4C64",
"Q  c #ED5D72",
"!  c #EB5268",
"~  c #EF6B7E",
"^  c #EE6478",
"/  c #F07175",
"(  c #F17761",
")  c #7A881D",
"_  c #82901F",
"`  c #8C9C22",
"'  c #98A925",
"]  c #A7B928",
"[  c #FA8506",
"{  c #FA8A08",
"}  c #FB9507",
"|  c #F78E1E",
" . c #FA891B",
".. c #F89A14",
"X. c #FBA909",
"o. c #FBB504",
"O. c #FBA816",
"+. c #FDB51A",
"@. c #FDBA1E",
"#. c #FCB914",
"$. c #F58021",
"%. c #F99827",
"&. c #F99A35",
"*. c #F7A72F",
"=. c #F7A92E",
"-. c #FDBF20",
";. c #FAA73B",
":. c #F7B137",
">. c #F8B534",
",. c #F7B138",
"<. c #F8B43B",
"1. c #F8BC3D",
"2. c #F9BA35",
"3. c #B6CA2B",
"4. c #B5CA2B",
"5. c #FBC309",
"6. c #C1D72E",
"7. c #FCC225",
"8. c #FCCB2B",
"9. c #FCC527",
"0. c #F9C23D",
"q. c #FACB3C",
"w. c #FCD331",
"e. c #FCDB32",
"r. c #FCDD3A",
"t. c #FCD63A",
"y. c #FCD126",
"u. c #FDE43C",
"i. c #F89B49",
"p. c #F8BA41",
"a. c #F7B349",
"s. c #FCAA5A",
"d. c #FAAE4E",
"f. c #F9A868",
"g. c #FCB46A",
"h. c #FBC747",
"j. c #FBD54B",
"k. c #FDE742",
"l. c #FDEC43",
"z. c #FDEE49",
"x. c #FDE54C",
"c. c #FDF14A",
"v. c #FDF650",
"b. c #FCC971",
"n. c #38478A",
"m. c #0055A5",
"M. c #4F7D87",
"N. c #4B7F88",
"B. c #EF7083",
"V. c #009494",
"C. c #309197",
"Z. c #00A8A8",
"A. c #00B1B0",
"S. c #15A3A5",
"D. c #F18191",
"F. c #F28C9B",
"G. c #F7A98E",
"H. c #F499A6",
"J. c #F6ADB8",
"K. c #F7B3A5",
"L. c #FDDF93",
"P. c #FDCE8F",
"I. c #FDD4AD",
"U. c #FBCFB0",
"Y. c #FDD7B3",
"T. c #FAD2D8",
"R. c #FBD9DE",
"E. c #FBD5D0",
"W. c #F9C6CE",
"Q. c #FEE4C9",
"!. c #FEECDB",
"~. c #FEE8D6",
"^. c #FEF0DD",
"/. c #FDE6E6",
"(. c #FEF4E7",
"). c #FFF6EC",
"_. c #FFF8EE",
"`. c #FDEEF0",
"'. c #FFFFFF",
"]. c #FEF7F4",
/* pixels */
"                                                                                                                                ",
"                                                                                                                                ",
"                                                                                                                                ",
"                                                                                                                                ",
"                                                                                                                                ",
"                                                                                                                                ",
"                                                                                                                                ",
"                                                                                                                                ",
"                                                                                                                                ",
"                                                                                                                                ",
"                                                                                                                                ",
"                                                                                                                                ",
"                                                                                                                                ",
"                                                                                                                                ",
"                                                                                                                                ",
"                                                                                                                                ",
"                                                                                                                                ",
"                                                                                                        /.                      ",
"                                                                                                        P.).                    ",
"                                                                                                          ).                    ",
"                                                                                                        C I.                    ",
"                                                                                                      &.V &.                    ",
"                                                                                                      s.C V                     ",
"                                                    c c c c c c c c c v                               g.C V s.Q.                ",
"                                              c c c c c v v c v c c c c c c c                     I.Y.i.[ V  .Y.                ",
"                                          c c c c c c c v T U v T Y v c c c c c c                 _.(.%...[ V i.                ",
"                                        c c v v I ! F.R.].'.F.P T.'.].J.^ I v c c c           Q.Q.'._.%.O...[ [ g.              ",
"                                    c c v v W H.R.].'.'.'.'.F.P T.'.'.'.'.R.H.R v c c c       ].~.'.^.;.@.+.O.} {               ",
"                                  c v v I B./.'.'.'.'.'.'.'.F.P T.'.'.'.'.'.'.R.Q c c c c     (.~.'.^.h.8.-.@.O.{ }             ",
"                                c c v T /.'.'.'.'.'.'.'.'.'.F.P T.'.'.'.'.'.'.'.'.H.P c c c   ]._.(.P.9.t.-.-.+.} }             ",
"                              c c c ^ /.'.'.'.'.'.'.'.'.'.'.F.P T.'.'.'.'.'.'.'.'.'.H.v c c c ~.(.b.q.7.k.8.8.+.7.X.}           ",
"                            c c c D.`.'.'.'.'.'.'.'.'.'.'.'.F.P T.'.'.'.'.'.'.'.'.'.].J.v E P G.j.7.8.8.u.z.l.w.r.@.O.          ",
"                          c c v W '.'.'.'.'.'.'.'.'.'.'.'.'.F.P T.'.'.'.'.'.'.'.'.'.'.'.B.K.( i.2.w.u.t.u.v.v.k.r.r.o.          ",
"                          c c T T.'.'.'.'.'.'.'.'.'.'.'.'.'.F.P T.'.'.'.'.'.'.'.'.'.'.'./.E.f.| :.t.z.k.l.c.v.c.u.c.#.X.        ",
"                        c c v H.'.'.'.'.'.'.'.'.'.'.'.'.'.'.F.P T.'.'.'.'.'.'.'.'.'.'.'.'.U.i...>.1.z.z.c.c.c.c.c.c.y.o.        ",
"                        c c Y R.'.'.'.'.'.'.'.'.'.'.'.'.'.'.F.P T.'.'.'.'.'.'.'.'.'.'.'.'.~.i...0.h.k.l.l.l.l.l.l.l.e.o.        ",
"                      c c c ~ ].'.'.'.'.'.'.'.'.'.'.'.'.'.'.F.P T.'.'.'.'.'.'.'.'.'.'.'.'.'.a.O.1.0.h.u.u.l.l.l.l.u.u.5.        ",
"                      c c c W.'.'.'.'.'.'.'.'.'.'.'.'.'.'.'.F.P T.'.'.'.'.'.'.'.'.'.'.'.'.'.L...2.1.0.r.u.u.u.u.l.l.e.5.        ",
"                    c c c c Q ~ ~ ~ ~ ~ ~ ~ ~ ~ ~ ~ ~ ~ ~ ~ R v Q ~ ~ ~ ~ ~ ~ ~ ~ ~ ~ ~ ~ ~ / S %.<.p.1.q.q.t.r.x.x.y.          ",
"                c c c c c v v L K K x c c c c c c c c c c c v c x K K L x c c c c c c c c c c c Z *.a.p.0.2.1.0.h.w.            ",
"            c c c c c c c c w m.m.m.w v c c c c c c c c c c c x n.m.m.m.e c c c c c c c c c c c v b F *.,.<.:.=.F b             ",
"          c c c c c c c c c H w w w H c c c c c c c c c c c c c J w n.e H c c c c c c c c c c c v b G *.,.<.:.=.F n c c         ",
"          c c c c c c c c v c c c c c c c c c c c c c c c c c c c c c c c c c c c c c c c c c c v c c c v c c c c c c c         ",
"        c c c c c c c c z f a s d v c c c c c c c c c c c c c c c c c c c c c c c c c c c z d a a d c c c c c c c N A M c       ",
"      c c c c c c c j i - * + @ = 4 a l c c c c c c c c c c c c c c c c c c c c c c c k 6 3 * @ @ * 2 p k c c c b $.$.$.N c     ",
"      c c c c c c h - . . . . . . . + 5 z c c c c v c c c c c c c c c c c c c c c c d 4 . . . . . . . X 6 z c c G | | | Z c     ",
"      c c c c c f = . . . . . . . . . . 5 k c c c c c c c c c c c c c c c c c c c h = . . . . . . . . . . - c c D %.| | S c     ",
"    c c c c c k - . . . . . . . . . . . . 6 c c c c c c c c c c c c c c c c c c c 3 . . . . . . . . . . . . u z N D F G M c c   ",
"    c c c c c a X . . . . . . . . . . . . * h c c c c c c c c c c c c c c c c c p . . . . . . . . . . . . . * d c M n M c c c   ",
"    c c c c c ; . . . . o 8 ' ) > . . . . . p c c c c c c c c c c c c c c c c c 2 . . . . . 8 ' ` , . . . . . 6 c c c c c c c   ",
"    c c v v z . . . . . 0 3.6.6.4.# . . . . 4 c c c c c c c c c c c c c c c c c * . . . . 8 3.6.6.3.> . . . . 2 c c c c c c c   ",
"  S.N.M.M.M.y . . . . $ ] 6.6.6.6.9 . . . . ; c c c c c c c c c c c c c c c c c . . . . o ' 6.6.6.3.) . . . . & M.M.M.M.M.M.M.C.",
"A.A.A.A.A.A.V.. . . . % 4.6.6.6.6.9 . . . . = c c c c c c c c c c c c c c c c c . . . . # ' 6.6.6.6.) . . . . 1 A.A.A.A.A.A.A.A.",
"A.A.A.A.A.A.Z.. . . . o ` 6.6.6.6.> . . . . 2 c c c c c c c c c c c c c c c c c @ . . . . ) 6.6.6.6.8 . . . . < A.A.A.A.A.A.A.A.",
"  A.A.A.A.A.A.O . . . . # _ 4.] 9 . . . . .                                     . . . . . % 0 4.4.q X . . . . r A.A.A.A.A.A.A.A.",
"                . . . . . # : % o . . . . .                                       . . . . . o : : o . . . . .                   ",
"                . . . . . . . . . . . . . .                                       . . . . . . . . . . . . .                     ",
"                  . . . . . . . . . . . .                                           . . . . . . . . . . . .                     ",
"                    . . . . . . . . . .                                               . . . . . . . . . .                       ",
"                      . . . . . . .                                                     . . . . . . . .                         ",
"                                                                                                                                ",
"                                                                                                                                ",
"                                                                                                                                ",
"                                                                                                                                "
};
