/* XPM */
static char *b2077d31717e40b1e2687271e4eb7cb2Vj4tqNoIsBJ5Cvlx[] = {
/* columns rows colors chars-per-pixel */
"64 64 177 2 ",
"   c None",
".  c #000000",
"X  c #090102",
"o  c #0A0B03",
"O  c #040C09",
"+  c #150305",
"@  c #1C0307",
"#  c #131504",
"$  c #161906",
"%  c #1B1F07",
"&  c #141C1E",
"*  c #240409",
"=  c #2B050A",
"-  c #3C070E",
";  c #34060D",
":  c #262B09",
">  c #30350C",
",  c #353A0D",
"<  c #003434",
"1  c #002828",
"2  c #4C0812",
"3  c #420710",
"4  c #560915",
"5  c #640B18",
"6  c #760D1C",
"7  c #3E450F",
"8  c #525C14",
"9  c #5B6516",
"0  c #6A7619",
"q  c #646F18",
"w  c #543F7D",
"e  c #5C3E7A",
"r  c #005151",
"t  c #52407F",
"y  c #446871",
"u  c #820E1F",
"i  c #840E20",
"p  c #9C1125",
"a  c #A11227",
"s  c #A71329",
"d  c #BD152E",
"f  c #B6142C",
"g  c #C2152F",
"h  c #CC1631",
"j  c #C71630",
"k  c #D41733",
"l  c #D71834",
"z  c #DC1835",
"x  c #DE1B3B",
"c  c #E51937",
"v  c #E51B39",
"b  c #EA3C2C",
"n  c #E9362E",
"m  c #E6213E",
"M  c #E82934",
"N  c #E93432",
"B  c #EA3637",
"V  c #FA7D03",
"C  c #F36E15",
"Z  c #EC492B",
"A  c #EE5928",
"S  c #F05D29",
"D  c #EF6822",
"F  c #F26D26",
"G  c #F37B24",
"H  c #F37424",
"J  c #9C2C5A",
"K  c #8B3163",
"L  c #C62247",
"P  c #CA2044",
"I  c #E72542",
"U  c #E72B47",
"Y  c #E82E49",
"T  c #E8324C",
"R  c #E93B55",
"E  c #EA435C",
"W  c #EB4C64",
"Q  c #ED5D72",
"!  c #EB5268",
"~  c #EF6B7E",
"^  c #EE6478",
"/  c #F07175",
"(  c #7A881D",
")  c #82901F",
"_  c #8C9C22",
"`  c #98A925",
"'  c #A7B928",
"]  c #FA8303",
"[  c #FA820A",
"{  c #F98B07",
"}  c #FB980A",
"|  c #F78E1E",
" . c #F69715",
".. c #FA9E17",
"X. c #FBA505",
"o. c #FBB504",
"O. c #FBA816",
"+. c #FDB51C",
"@. c #FCBB1E",
"#. c #FCB914",
"$. c #F58327",
"%. c #F59F32",
"&. c #F59F29",
"*. c #F7A72F",
"=. c #F7A92E",
"-. c #FCAA21",
";. c #FCBC24",
":. c #F7B137",
">. c #F8B534",
",. c #F7B138",
"<. c #F8B43B",
"1. c #F8BC3D",
"2. c #F9BA34",
"3. c #B6CA2B",
"4. c #BED42D",
"5. c #ACC029",
"6. c #FBC309",
"7. c #C1D72E",
"8. c #FCC222",
"9. c #FCCB2A",
"0. c #FCCC21",
"q. c #F9C23D",
"w. c #FACB3C",
"e. c #FCD331",
"r. c #FCDB32",
"t. c #FCDD3B",
"y. c #FCD63A",
"u. c #FCD126",
"i. c #FDE43C",
"p. c #FBA341",
"a. c #F8BA41",
"s. c #F7B349",
"d. c #F8A75E",
"f. c #F5997B",
"g. c #FCB874",
"h. c #FAC947",
"j. c #FCD34F",
"k. c #FDE742",
"l. c #FDEC43",
"z. c #FDEE49",
"x. c #FDE54C",
"c. c #FDF14A",
"v. c #FDF650",
"b. c #FDD566",
"n. c #38478A",
"m. c #0055A5",
"M. c #4F7D87",
"N. c #4B7F88",
"B. c #EF7083",
"V. c #009494",
"C. c #309197",
"Z. c #00A8A8",
"A. c #00B1B0",
"S. c #15A3A5",
"D. c #F18191",
"F. c #F28C9B",
"G. c #F9BD88",
"H. c #F499A6",
"J. c #F6ADB8",
"K. c #FDCC9D",
"L. c #FBCC89",
"P. c #FDE199",
"I. c #FDDAAA",
"U. c #FACBB8",
"Y. c #FEE0A7",
"T. c #FEE5BD",
"R. c #FCDECD",
"E. c #FAD2D8",
"W. c #FBD9DE",
"Q. c #F9C6CE",
"!. c #FEEBDB",
"~. c #FCE4E8",
"^. c #FEF5E8",
"/. c #FDEEF0",
"(. c #FFF8F1",
"). c #FFFFFF",
"_. c #FEF4F5",
/* pixels */
"                                                                                                                                ",
"                                                                                                                                ",
"                                                                                                                                ",
"                                                                                                                                ",
"                                                                                                                                ",
"                                                                                                                                ",
"                                                                                                                                ",
"                                                                                                                                ",
"                                                                                                                                ",
"                                                                                                                                ",
"                                                                                                                                ",
"                                                                                                                                ",
"                                                                                                                                ",
"                                                                                                                                ",
"                                                                                                                                ",
"                                                                                                                                ",
"                                                                                                                                ",
"                                                                                                                                ",
"                                                                                                                                ",
"                                                                                                          V                     ",
"                                                                                                        V V                     ",
"                                                                                                      V V [                     ",
"                                                                                                        V [                     ",
"                                                    c v c c c c c c c c                               V V V I._.                ",
"                                              c c c c c v c c c c c c c c c c                         V [ V K.).                ",
"                                          c c c c c c c m T Y v R T v c c c c c c                 V V ] } ] g.).^.              ",
"                                        v c c v U ! F.W.).).F.I E.)._.J.^ U v c c c               V ] { +...p._.).^.            ",
"                                    c c v v W H.W._.).).).).F.I E.).).).).W.H.E v c c c       ]   ] { } +.+.-.!.).(.            ",
"                                  c v v U D.~.).).).).).).).F.I E.).).).).).).W.Q c c c c         { } #.9.+.;.I.).).            ",
"                                c c v R ~.).).).).).).).).).F.I E.).).).).).).).).H.I c c c       } O.@.t.8.;.j.^.(.^.          ",
"                              c c c ^ ~.).).).).).).).).).).F.I E.).).).).).).).).).H.m c c c   } X.@.8.k.9.9.;.b.I.T.          ",
"                            c c c D./.).).).).).).).).).).).F.I E.).).).).).).).).)._.J.v B c C ;.8.9.9.t.z.l.e.t.@.+.          ",
"                          c c c W ).).).).).).).).).).).).).F.I E.).).).).).).).).).).).B.f.Z G 2.e.i.r.i.v.v.i.i.t.#.          ",
"                          c c R E.).).).).).).).).).).).).).F.I E.).).).).).).).).).).).~.U.$.{ >.y.c.k.l.c.v.c.l.z.6.X.        ",
"                        c c v H.).).).).).).).).).).).).).).F.I E.).).).).).).).).).).).).R.d. .2.q.z.z.c.c.c.c.l.c.0.o.        ",
"                        c c T W.).).).).).).).).).).).).).).F.I E.).).).).).).).).).).).).!.G...h.a.k.l.l.l.l.c.l.l.r.o.        ",
"                      c c c ~ _.).).).).).).).).).).).).).).F.I E.).).).).).).).).).).).).).L.O.2.a.w.l.l.i.l.i.l.l.i.6.        ",
"                      c c c Q.).).).).).).).).).).).).).).).F.I E.).).).).).).).).).).).).).P. .2.1.1.t.i.i.i.i.i.k.r.6.        ",
"                    c c c c Q ~ ~ ~ ~ ~ ~ ~ ~ ~ ~ ~ ~ ~ ~ ~ E v Q ~ ~ ~ ~ ~ ~ ~ ~ ~ ~ ~ ~ ~ / D &.1.a.1.w.w.y.t.x.x.u.          ",
"                c c c c v v v P L L x c c c c c c c c c c c c c x L L P x c c c c c c c c c c c A %.s.a.1.2.a.q.j.e.            ",
"            c c c c c c c c w m.m.m.w v c c c c c c c c c c c x n.m.m.m.e c c c c c c c c c c c v b G *.,.<.:.=.H n             ",
"          c c c c c c c c c J w w w J c c c c c c c c c c c c v K w n.e J c c c c c c c c c c c v b G *.,.<.:.=.G n c c         ",
"          c c c c c c c c c c c v c c c c c c c c c c c c c c c c c c c c c c c c c c c c c c c c c c c v c c c c c c c         ",
"        c c c c c c c v z f a s d c c c c c c c c c c c c c c c c c c c c c c c c c c c c z d a s d c c c c c c c n Z N c       ",
"      c c c c c c c j i - * + @ = 4 a l c c c c c c c c c c c c c c c c c c c c c c c k 6 3 * @ + * 2 p l c c c n H | | N c     ",
"      c c c c c c h - . . . . . . . + 5 z c c c c c c c c c c c c c c c c c c c c c d 4 . . . . . . . X 6 l c c F | | | S c     ",
"      c c c c c f = . . . . . . . . . . 5 k c c c c c c c c c c c c c c c c c c c h = . . . . . . . . . . - c c F | | | S c     ",
"    c c c c c l - . . . . . . . . . . . . 6 c c c c c c c c c c c c c c c c c c c 3 . . . . . . . . . . . . u z M H $.H M c c   ",
"    c c c c c a X . . . . . . . . . . . . * h c c c c c v c c c c c c c c c c c p . . . . . . . . . . . . . * d c M N M c c c   ",
"    c c c c c ; . . . . o 8 ` ( > . . . . . p c c c c c c c c c c c c c c c c c 2 . . . . . 8 ` _ , . . . . . 6 c c c c c c c   ",
"    c c v v z . . . . . 0 4.7.7.3.# . . . . 4 c c c c c c c c c c c c c c c c c * . . . . 8 3.7.7.3.> . . . . 2 c c c c c c c   ",
"  S.N.M.M.M.y . . . . $ ' 7.7.7.7.9 . . . . ; c c c c c c c c c c c c c c c c c . . . . o ` 7.7.7.4.( . . . . & M.M.M.M.M.M.M.C.",
"A.A.A.A.A.A.V.. . . . % ' 7.7.7.7.9 . . . . = c c c c c c c c c c c c c c c c c . . . . # ` 7.7.7.7.( . . . . 1 A.A.A.A.A.A.A.A.",
"A.A.A.A.A.A.Z.. . . . o ` 4.7.7.7.> . . . . 2 c c c c c c c c c c c c c c c c c @ . . . . ( 7.7.7.7.8 . . . . < A.A.A.A.A.A.A.A.",
"  A.A.A.A.A.A.O . . . . # ) 3.' 9 . . . . .                                     . . . . . % 0 3.' 0 X . . . . r A.A.A.A.A.A.A.A.",
"                . . . . . # : % o . . . . .                                       . . . . . o : : o . . . . .                   ",
"                . . . . . . . . . . . . . .                                       . . . . . . . . . . . . .                     ",
"                  . . . . . . . . . . . .                                           . . . . . . . . . . . .                     ",
"                    . . . . . . . . . .                                               . . . . . . . . . .                       ",
"                      . . . . . . .                                                     . . . . . . . .                         ",
"                                                                                                                                ",
"                                                                                                                                ",
"                                                                                                                                ",
"                                                                                                                                "
};
