
/* XPM */
static char *_6136438b6704fd2ccbda1b6e899dc86L5EVgda9ppZJUnfJ[] = {
/* columns rows colors chars-per-pixel */
"64 64 231 2 ",
"   c None",
".  c #000000",
"X  c #090301",
"o  c #0A0A01",
"O  c #040C09",
"+  c #160704",
"@  c #191704",
"#  c #141C1E",
"$  c #250409",
"%  c #2A050A",
"&  c #3B070E",
"*  c #231B01",
"=  c #262807",
"-  c #3E3206",
";  c #34390C",
":  c #322907",
">  c #002E2E",
",  c #4A0812",
"<  c #531410",
"1  c #780D1D",
"2  c #6C1D1D",
"3  c #473906",
"4  c #58351B",
"5  c #552D15",
"6  c #67371E",
"7  c #593922",
"8  c #582E22",
"9  c #683C22",
"0  c #743C23",
"q  c #753530",
"w  c #3E450F",
"e  c #534308",
"r  c #525C14",
"t  c #6B580E",
"y  c #6C4C12",
"u  c #5C6616",
"i  c #766314",
"p  c #6E7116",
"a  c #5E412F",
"s  c #794928",
"d  c #70452B",
"f  c #005151",
"g  c #446871",
"h  c #86121F",
"j  c #991325",
"k  c #A61328",
"l  c #BB152D",
"z  c #992728",
"x  c #8A2C24",
"c  c #AD222C",
"v  c #CB1631",
"b  c #DB1834",
"n  c #D41833",
"m  c #CA192F",
"M  c #E51937",
"N  c #EA3C2B",
"B  c #E8382B",
"V  c #E62334",
"C  c #E72A34",
"Z  c #E82D31",
"A  c #E93431",
"S  c #EA3D33",
"D  c #CC3425",
"F  c #8D5813",
"G  c #886614",
"H  c #A6740E",
"J  c #A7691A",
"K  c #AD7B19",
"L  c #BC7A19",
"P  c #854B2B",
"I  c #8C522E",
"U  c #865B25",
"Y  c #935D21",
"T  c #9D5B32",
"R  c #965831",
"E  c #A15E31",
"W  c #92632E",
"Q  c #A6632D",
"!  c #A96828",
"~  c #A97427",
"^  c #B37728",
"/  c #A46D33",
"(  c #AF702E",
")  c #B34518",
"_  c #EF5A1E",
"`  c #F15F1D",
"'  c #C3781E",
"]  c #D87F13",
"[  c #FA7D02",
"{  c #F1691C",
"}  c #F37718",
"|  c #EC701F",
" . c #EC4427",
".. c #ED4C24",
"X. c #EB432A",
"o. c #EC4B2C",
"O. c #EE5928",
"+. c #F05C26",
"@. c #EC4C35",
"#. c #F16924",
"$. c #F0712A",
"%. c #F37A25",
"&. c #EE6534",
"*. c #F06F2E",
"=. c #D1581C",
"-. c #9B7044",
";. c #E26F5A",
":. c #7A881D",
">. c #82901F",
",. c #A78C19",
"<. c #BB8518",
"1. c #B3880B",
"2. c #9D8623",
"3. c #8C9C22",
"4. c #B98D31",
"5. c #98A925",
"6. c #A7B928",
"7. c #C88C18",
"8. c #CD961C",
"9. c #D39917",
"0. c #DB8E13",
"q. c #FA8305",
"w. c #FA8A05",
"e. c #FB8C09",
"r. c #F6880C",
"t. c #FA9305",
"y. c #FB930B",
"u. c #FB9B0D",
"i. c #FB9A05",
"p. c #F78E1E",
"a. c #F58615",
"s. c #E79619",
"d. c #FC9D10",
"f. c #F99817",
"g. c #EB880D",
"h. c #D9A71B",
"j. c #FBA502",
"k. c #FBA901",
"l. c #FBA40D",
"z. c #FBA314",
"x. c #FCAB15",
"c. c #FAA41D",
"v. c #FBAD1C",
"b. c #F5AF17",
"n. c #E7B11C",
"m. c #FCB31A",
"M. c #FCB719",
"N. c #EEA90E",
"B. c #C78B28",
"V. c #CC922E",
"C. c #D69A28",
"Z. c #D89834",
"A. c #F48626",
"S. c #F59B2B",
"D. c #F69823",
"F. c #F59737",
"G. c #F18C30",
"H. c #D9BF36",
"J. c #CFAF29",
"K. c #E3AF23",
"L. c #F9A621",
"P. c #FAAC23",
"I. c #F7A62F",
"U. c #F8AC2C",
"Y. c #E8BA24",
"T. c #FBB225",
"R. c #FBBD22",
"E. c #F9B32B",
"W. c #F6BB2A",
"Q. c #F7AD36",
"!. c #F9B633",
"~. c #F9BC34",
"^. c #F8BC3B",
"/. c #F7B33A",
"(. c #E1A335",
"). c #B6CA2B",
"_. c #B5CA2B",
"`. c #FBC20E",
"'. c #C1D72E",
"]. c #DFC330",
"[. c #EAC22B",
"{. c #FBC224",
"}. c #FCCC2B",
"|. c #F7C52C",
" X c #FCD32B",
".X c #ECCB33",
"XX c #EAC835",
"oX c #FAC336",
"OX c #FBCC34",
"+X c #FAC43A",
"@X c #FBCC3C",
"#X c #F4CD36",
"$X c #EDD43C",
"%X c #FBD33C",
"&X c #FCDD3A",
"*X c #F9D837",
"=X c #FDE63D",
"-X c #FDE036",
";X c #BC8E57",
":X c #C18C47",
">X c #F8BB44",
",X c #F6A840",
"<X c #F4864E",
"1X c #F9C342",
"2X c #FBCE42",
"3X c #FACC48",
"4X c #ECDB44",
"5X c #E9DA47",
"6X c #FCD542",
"7X c #FBD944",
"8X c #FCDE4A",
"9X c #F5D843",
"0X c #F4CE4A",
"qX c #EEE34C",
"wX c #FDEC44",
"eX c #FCE24D",
"rX c #FDE946",
"tX c #FDF24B",
"yX c #FDE652",
"uX c #FDEB54",
"iX c #FDEF59",
"pX c #F6EA54",
"aX c #FDF25C",
"sX c #FDF650",
"dX c #4F7D87",
"fX c #4B7F88",
"gX c #009494",
"hX c #00A8A8",
"jX c #00B1B0",
"kX c #15A3A5",
"lX c #309197",
/* pixels */
"                                                                                                                                ",
"                                                                                                                                ",
"                                                                                                                                ",
"                                                                                                                                ",
"                                                                                                                                ",
"                                                                                                                                ",
"                                                                                                                                ",
"                                                    [ [ [ [                                                                     ",
"                                                [ [ [ [ [ [                                                                     ",
"                                                [ [ [ [ [                                                                       ",
"                                                [ [ [ [                                                                         ",
"                                          w.  [ [ [ [ [ [                                                                       ",
"                                        [ e.[ q.[ [ [ [ [                                                                       ",
"                                      q.q.w.q.[ [ [ [ [ [                                                                       ",
"                                      q.q.e.a.[ [ [ q.[ [                                                                       ",
"                                    q.[ q.w.q.q.q.[ [ w.q.                                                                      ",
"                                    q.q.q.w.q.q.[ q.q.q.[                                                                       ",
"                                    q.q.q.w.q.q.q.w.q.q.e.                                                                      ",
"                                    q.q.q.w.e.q.e.e.e.q.q.                                                                      ",
"                                    q.q.e.e.e.e.e.f.y.e.e.q.                                                                    ",
"                                    w.q.q.w.y.y.y.z.d.u.w.q.                                                                    ",
"                                    q.q.w.e.y.d.d.x.x.z.y.e.e.                                            [                     ",
"                                    w.w.w.y.d.z.z.v.v.x.d.y.y.                                        [ [ [                     ",
"                                    t.w.t.u.u.z.x.m.v.P.f.a.{ #... . .X.                              [ [ [                     ",
"                                  l.u.t.e.t.u.d.L.P.P.P.L.p.a.#.+...X.N C V b                           [ [                     ",
"                                x.l.x.l.e.y.f.c.P.E.T.T.P.L.D.| ' J J ) D C V V M                     [ [ [ [ [                 ",
"                                b.m.m.z.a.f.d.P.E.~.oX@X+X2X/.p.B.^ ~ / ;.S Z V V M               [ [ q.y.[ [ [                 ",
"                                m.v.c.c.f.f.L.E.@X7X6X@X6X6XoXC.B.C.^ Y s / I P x z 2 5 d 7       [ q.q.v.y.q.[ [               ",
"                                v.L.L.c.P.T.~.OX6X8X8X3X6X6X+XK.9.<.H J U Y ! Q E T I d -.;X4 q.  q.w.u.m.m.z.y.q.              ",
"                              } D.U.T.E.@X@X+X@X6X8X8X6X8X6X2X~.K.0.7.K J ~ Q Q Q E R R s s       e.t.m.}.M.R.v.e.w.            ",
"                               .A.T.oX@X%X6X@X@X7XyX8XeX8X8X3X[.Y.h.9.H F Y ! ! E E s 9 I q M q.t.i.x.M.&X{.M.m.i.i.            ",
"                            B ..A.+X6X7X7X7X7X6X8X8XyXuXyXyX2X.XXXY.h.1.H J ( ! Q T 5 + 9 d M ..i.j.{.{.wXOX XM.}.l.i.          ",
"                          B X.+.F.8X7X7X7XeXeX%X7XyXuXaXiXpX4X$XXX[.K.9.<.V.V.U W / s d I s n { !.{. X}.-XsXtX*X=XR.M.          ",
"                           ._ p.1X8X7XeXeXyXeXeX8XyXiXaXaXpX4X$X$XXXn.h.8.J.V.y U :XW I T I ) r.!.%XwX-X=XsXsXtX*XrX`.k.        ",
"                j.k.j.j.{ _ } U.@X7X7XeXuXuXyXeXyXyXaXaXaXqX4X4X$XXXY.h.9.7.V.V.^ ~ W I I d y g.U.^.tXtXtXsXtXtXtXtX`.k.k.      ",
"                j.k.j.t.} } a.T.OX%XeXeXuXuXuXuXpXuXaXaXaXqX4X4X$X.X[.n.9.7.B.Z.^ J J 9 5 7 J g.+X1X8XwXwXtXwXwXwXwX Xk.        ",
"                k.k.k.r.r.r.c.R.OX7XeXeXuXiXaXiXiXaXaXaXaXqX4X$X$X$X.XY.n.9.0.8.' ' J 6 5 s / 0.1X>X2XwXwXwXwX=X=XwX-X`.        ",
"                    r.{ } r.T.{.OX7XeXyXiXsXiXaXaXaXaXaXaXqX4XqXqXqX*X.XY.n.N.7.0.B.J a 7 s s Y ~.^.+X9X=X=X=X=X=X=X-X`.        ",
"                     ...{ g.x.m.|.%X7XeXeXeXeXeXeXeXeXeXeXeXeX8XrXeXeX7X%X|.U.P.S.<X;.q 8 4 s 0 U.+X^.^.oX#X*X&XwXuX X          ",
"                V M M Z _ } f.n.|.*X7X%X6X7X6X8X6X6X7X7X7X7X*X7X7X9X9X9X%XoXR.x.a.@.C j 5 6 0 z +.Q.>X>X^./.>X1X8XOX            ",
"            M M M M M Z ..} C.Y.XX5X4X7X6X7X7X6X7X7X7X7X7X6X7X7X5XqX5X5X4XOXR.b.a.o.V k x z l n M B %.I./././.I.%.B             ",
"          M M M M M M Z  .| 9.n.XX$X9X%X%X7X%X6X7X7X%X6X6X%X6X6X4X4X5XqX9XOX|.c.} X.M M v n M M M M M M M M M M M M M M         ",
"          M M M M M M C  .{ a.b.{.OX%X%X&X6X%X%X%X%X%X%X%X%X&X6X6X%X9X2X%X#XW.c.} S M M M M M M M M M M M M M M M M M M         ",
"        M M M M M M M V B =.0.s.Y.OX%X%X%X%X%X%X%X%X%X%X%X%X%X%X%X%X9X2X%X+XE.A.+.A M M M b l k k l M M M M M M M A @.Z M       ",
"      M M M M M M M v h 5 5 G 1.h.[.#X@X%X%X@X%X%X%X%X%X%X%X%X%X%X%X6X7X@X~.F.$.o.C M n 1 , $ + + % , j n M M M N %.p.%.A M     ",
"      M M M M M M m & X + * 3 i ,.J.].+X6X%X@X%XOX%XOX%XOXOX@X%X%X6X3X3X1XQ.G.@.Z V m , . . . . . . . X 1 b M M #.p.p.p.+.M     ",
"      M M M M M l % . . X + : e i ,.6.H.XX2X@X%X%X@X@X#X%X@X%X@X2X2X3X>XQ.G.&.S V m $ . . . . . . . . . . & M M #.p.D.p.+.M     ",
"    M M M M M n & . . . . X + = 3 t 2.J.H.0X2X2X%X@X@X%X@X@X2X2X2X3X1X>XF.&.A V b & . . . . . . . . . . . . h M Z %.%.%.C M M   ",
"    M M M M M j X . . . . . X o * 3 i 2.4.H.>X1X@X@X@X@X@X@X@X+X3X>X,XF.&.@.V V j . . . . . . . . . . . . . $ l M C A V M M M   ",
"    M M M M M & . . . . O r 5.:.; @ - y p 2.(.^.+X+X+X@X+X@X+XoX/.F.*.&.@.C M M , . . . . O w 6.3.; . . . . . 1 M M M M M M M   ",
"    M M M M b X . . . . p ).'.'._.* @ : e i B.Q.!.+X+X@X+X+X~.!.F.%.O.S C M M M $ . . . . u ).'.'.).; . . . . , M M M M M M M   ",
"  kXfXdXdXdXg . . . . @ 6.'.'.'.'.u X @ ; t K I.~.+X+X+X+XoXoX!.F.$.@.A V M M M . . . . o 5.'.'.'.).:.. . . . # dXdXdXdXdXdXdXlX",
"jXjXjXjXjXjXgX. . . . @ _.'.'.'.'.p o @ 3 t ,.I.~.~.+X+X+X+XoXE.S.$.o.A M M M M . . . . @ 5.).'.'.'.:.. . . . > jXjXjXjXjXjXjXjX",
"jXjXjXjXjXjXhX. . . . O 3.).'.'.).; o @ - t ^ I.~.+X+X+X+X+XoXE.S.$.o.Z V M M M + . . . . :.'.'.'.'.r . . . . > jXjXjXjXjXjXjXjX",
"  jXjXjXjXjXjXO . . . . @ :.).6.u . . . . .                                     . . . . . @ p _._.p . . . . . f jXjXjXjXjXjXjXjX",
"                . . . . O @ = = o . . . . .                                       . . . . X O = = O . . . . .                   ",
"                . . . . . . . . . . . . . .                                       . . . . . . . . . . . . .                     ",
"                  . . . . . . . . . . . .                                           . . . . . . . . . . . .                     ",
"                    . . . . . . . . . .                                               . . . . . . . . . .                       ",
"                      . . . . . . .                                                     . . . . . . . .                         ",
"                                                                                                                                ",
"                                                                                                                                ",
"                                                                                                                                ",
"                                                                                                                                "
};
