/* XPM */
static char *_b51d5dae94d4bdfebb418343c050887nYPjfQsVDHAq3Bfq[] = {
/* columns rows colors chars-per-pixel */
"64 64 229 2 ",
"   c None",
".  c #000000",
"X  c #090301",
"o  c #0A0A01",
"O  c #040C09",
"+  c #160704",
"@  c #191704",
"#  c #141C1E",
"$  c #250409",
"%  c #2A050A",
"&  c #3B070E",
"*  c #231B01",
"=  c #262807",
"-  c #3E3206",
";  c #34390C",
":  c #322907",
">  c #002E2E",
",  c #4A0812",
"<  c #531410",
"1  c #780D1D",
"2  c #6C1D1D",
"3  c #473906",
"4  c #58351B",
"5  c #552D15",
"6  c #67371E",
"7  c #593922",
"8  c #582E22",
"9  c #683C22",
"0  c #743C23",
"q  c #753530",
"w  c #3E450F",
"e  c #534308",
"r  c #525C14",
"t  c #6B580E",
"y  c #694A11",
"u  c #5C6616",
"i  c #766314",
"p  c #6E7116",
"a  c #5E412F",
"s  c #794928",
"d  c #70452B",
"f  c #005151",
"g  c #446871",
"h  c #86121F",
"j  c #991325",
"k  c #A61328",
"l  c #BB152D",
"z  c #992728",
"x  c #8D2E24",
"c  c #AD222C",
"v  c #CB1631",
"b  c #DB1834",
"n  c #D41833",
"m  c #CA192F",
"M  c #E51937",
"N  c #EA3B2B",
"B  c #E6362D",
"V  c #E62334",
"C  c #E72B33",
"Z  c #E82E32",
"A  c #E93431",
"S  c #EA3D33",
"D  c #845F05",
"F  c #8C6714",
"G  c #A66C1C",
"H  c #AB7F1C",
"J  c #BF7A1A",
"K  c #854E2C",
"L  c #8C512E",
"P  c #9B5932",
"I  c #A05E31",
"U  c #A25A20",
"Y  c #956525",
"T  c #926634",
"R  c #A96629",
"E  c #A97129",
"W  c #BB7426",
"Q  c #B67E2C",
"!  c #AB7030",
"~  c #B34518",
"^  c #D1581C",
"/  c #EF591E",
"(  c #F05E1D",
")  c #CF7F18",
"_  c #FA7D02",
"`  c #E96B1F",
"'  c #F16A1B",
"]  c #F47818",
"[  c #EC4327",
"{  c #ED4C24",
"}  c #EB4329",
"|  c #EC4B2B",
" . c #EE5523",
".. c #EE5926",
"X. c #ED552F",
"o. c #EF6024",
"O. c #F16825",
"+. c #F37C24",
"@. c #F0712B",
"#. c #F27727",
"$. c #EE6534",
"%. c #F17E38",
"&. c #977045",
"*. c #F17767",
"=. c #7A881D",
"-. c #82901F",
";. c #A78C19",
":. c #BA811F",
">. c #B3880B",
",. c #9D8623",
"<. c #8C9C22",
"1. c #B79F2E",
"2. c #98A925",
"3. c #A7B928",
"4. c #CB8C19",
"5. c #CA941C",
"6. c #DA9A1B",
"7. c #DA8C17",
"8. c #FA8305",
"9. c #FB8A05",
"0. c #FB8C09",
"q. c #F7870C",
"w. c #FB930B",
"e. c #FB9B0D",
"r. c #FA9504",
"t. c #F78E1E",
"y. c #F58616",
"u. c #E6981A",
"i. c #FC9C11",
"p. c #F9981B",
"a. c #EB880D",
"s. c #FBA805",
"d. c #E9A61B",
"f. c #FCA313",
"g. c #FDAB16",
"h. c #FBA41D",
"j. c #FCAC1B",
"k. c #F6A81C",
"l. c #FDB41A",
"z. c #FCB81A",
"x. c #F4B50F",
"c. c #C98722",
"v. c #D79B24",
"b. c #CC8F2A",
"n. c #F48626",
"m. c #E69828",
"M. c #F59B2B",
"N. c #F79924",
"B. c #F69838",
"V. c #F38D37",
"C. c #DEA825",
"Z. c #D9BF36",
"A. c #CDAF2B",
"S. c #E4AB23",
"D. c #E9A825",
"F. c #FBAC23",
"G. c #F7A62F",
"H. c #F8AB29",
"J. c #E5B323",
"K. c #EABB2B",
"L. c #E9B729",
"P. c #FBBD23",
"I. c #FAB32C",
"U. c #F9B627",
"Y. c #F7AD36",
"T. c #F9B632",
"R. c #F9BC34",
"E. c #F8BC3B",
"W. c #F7B33A",
"Q. c #E1A335",
"!. c #D1A91B",
"~. c #B6CA2B",
"^. c #B5CA2B",
"/. c #FBC20E",
"(. c #C1D72E",
"). c #DFC330",
"_. c #EAC32E",
"`. c #FBC224",
"'. c #FCCC2B",
"]. c #F7C42B",
"[. c #FCD32B",
"{. c #ECC632",
"}. c #EBCB36",
"|. c #FBC336",
" X c #FBCC34",
".X c #FAC43B",
"XX c #FBCC3C",
"oX c #F3CD35",
"OX c #EDD43C",
"+X c #EDD53B",
"@X c #FBD23C",
"#X c #FCDD3A",
"$X c #F7D738",
"%X c #FDE63D",
"&X c #FDE036",
"*X c #BC8E57",
"=X c #C28C46",
"-X c #F8BB44",
";X c #F9B24E",
":X c #F4864E",
">X c #F9C342",
",X c #FACE42",
"<X c #FBC849",
"1X c #ECDB44",
"2X c #E9DA47",
"3X c #FCD542",
"4X c #F4DA45",
"5X c #FBD944",
"6X c #FCDE4A",
"7X c #F8D544",
"8X c #F4CE4A",
"9X c #EEE34C",
"0X c #FDEC44",
"qX c #FCE24D",
"wX c #FDE946",
"eX c #FDF24B",
"rX c #FDE652",
"tX c #FDEA54",
"yX c #FDEF59",
"uX c #F6EA54",
"iX c #FDF25C",
"pX c #FDF650",
"aX c #4F7D87",
"sX c #4B7F88",
"dX c #009494",
"fX c #00A8A8",
"gX c #00B1B0",
"hX c #15A3A5",
"jX c #309197",
/* pixels */
"                                                                                                                                ",
"                                                                                                                                ",
"                                                                                                                                ",
"                                                                                                                                ",
"                                                                                                                                ",
"                                                                                                                                ",
"                                                                                                                                ",
"                                                      _                                                                         ",
"                                                    _ _                                                                         ",
"                                                    _ _ _                                                                       ",
"                                                  _ _ _ _                                                                       ",
"                                                  _ _ _ _ _                                                                     ",
"                                                  _ _ _ _ _                                                                     ",
"                                                  _ _ _ 8._ _ _                                                                 ",
"                                                _ _ 8._ _ 8.8._                                                                 ",
"                                                _ 8.8.q.8._ _ _                                                                 ",
"                                                8.8.0.8.8.8.8._                                                                 ",
"                                              8.8.8.0.0.8._ 8._ _ _                                                             ",
"                                              8.8.0.0.w.0.8.0.8.8.9.8.                                                          ",
"                                              9.0.i.w.0.8.w.0.w.w.w.w.                                                          ",
"                                            9.9.w.g.i.w.w.i.i.e.e.e.                                                            ",
"                                            9.0.i.g.g.f.f.f.g.f.f.e.e.                                    _                     ",
"                                            0.w.f.g.l.g.g.g.g.g.g.f.e.                                _ _ _                     ",
"                                            r.e.g.F.j.h.h.h.h.p.p.t.y.] '                             _ _ _                     ",
"                                            ] i.h.F.F.F.F.F.p.p.p.t.n.] o. .N                           _ _                     ",
"                                          / ' t.F.I.I.F.F.F.F.h.d.u.6.7.` ..N Z M                     _ _ _ _ _                 ",
"                                      / [ / ] t.I.|.|.|.|.R.I.k.D.d.D.v.m.$.| B C M               _ _ 8.w._ _ _                 ",
"                                    N [  .O.N.Y.XX3X3XXXXX|.U.F.k.D.D.6.b.b.E U x z 2 8 d 7       _ _ 0.g.w._ 8._               ",
"                                  N [ { O.B.-X|.@X6X5X3X,X.XR.d.d.d.6.C.5.4.c.W I I L 9 &.*X4 8.  8.9.e.l.l.f.0.8.              ",
"                                [ { ..@.;X<X|.XX3X6XrX<X3X3X|.H.J.S.S.6.v.v.c.W R I P P s s       9.r.l.'.z.P.g.9.9.            ",
"                              } o.] M.T.E..XXX@X5XqXqXqX6X6X.XK.K.J.S.v.4.4.) W R P s 9 L q M 8.r.r.g.z.#X`.`.l.r.r.            ",
"                            N { +.T..XXX,XXXXX3X6XqXrXtXrXrX3X{.{.K.L.C.5.v.c.W E I 5 + 9 d M { r.s.`.`.wX'.[.z. Xs.e.          ",
"                          N } o.B.6X3X3X3X3X3X3X5XrXtXiXiXyX+X}.}.{._.L.C.D.v.E Y ! s 9 L s n ( R.`.[.'.#XpXeX#X%XP.x.          ",
"                        q.} / y.>X3X5X5XqXqXqX6X6XrXyXiXiXuX1X+XOXOX{._.K.L.S.F F *XT L P L ~ q.T.@X0X#X%XpXpXeX$X0Xz.s.        ",
"                        ' / ] H.,X3X6XqXqXtXeXqXrXuXiXiXiX9X+X9XOXOX}.oXK.S.C.b.Q E P L L s y a.I.R.eX0XeXeXeXeX0XeX/.s.s.      ",
"                      r.] ] y.U. X3X6XqXtXtXtXtXtXtXiXiXiX9X9X+X1XOXOXOX{.J.D.Q.J G G 9 8 7 G a.-X>X6XeXeX0X0X0X0X0X[.x.        ",
"                      q.q.q.k.P. X5X6XqXtXyXyXyXyXiXiXiXiX9X1X9X9X+X1XOXoXL.d.!.4.J G 9 4 s E 7..X>X,XwX%X0X0X0X%X%X%X/.        ",
"                    ] ' ] q.U.P. X5XwXrXtXyXiXyXiXiXiXiXyX9X9X+X+X1X4X$X+X].J.s.u.c.G 9 4 s s U E.E..X4X%X%X%X%X%X%X&X/.        ",
"                    [ { ` q.k.l.|.@X5X6XqXqXqXqXqXqXqXqXqXqXqX5XqXqXqX6X5X X`.j.M.:X*.q 8 4 s 0 H.E.E..X|.oX@X#X0XtX[.          ",
"                V M M Z  .] p.x.].$X5X5X3X5X5X5X5X5X5X5X5X5X5X5X5X4X4X7X$XoXz.f.y.| C h 5 9 q z ..Y.-X-XE.E.E.>X6X[.            ",
"            M M M M M Z { ] 5.J.{.2X2X3X3X5X5X5X5X5X5X5X5X3X5X5X9X2X9X2X2X XP.k.y.| M k h z c b M N #.G.W.W.W.G.#.S             ",
"          M M M M M M C [ ' u.J._.+X7X@X3X3X3X@X5X5X@X5X5X@X5X5X1X2X2X2X7X X].k.y.N M M v n V M M M M M M M M M M M M M         ",
"          M M M M M M C [ ' t.x.]. X$X3X5X@X@X@X@X@X@X@X@X@X@X@X@X3X4X3X@X$XU.N.] N M M M M M M M M M M M M M M M M M M         ",
"        M M M M M M M C B ^ 7.u.P.oXXX$X$X@X@X@X@X@X@X@X@X@X@X@X@X@X3X@XXXoXI.n...S M M M b l k k l M M M M M M M A } A M       ",
"      M M M M M M M v h 5 5 D >.!._.oX@X@X@X@XXX@X@X@X@X@XXX@X@X@X3X3X,XXXR.M.@.| C M v 1 , $ + + % , j n M M M N n.t.+.A M     ",
"      M M M M M M v & . + * e D ;.A.).}.@X@XXX@X X@X X@XXX$XoX@XXX3X3X<X>XY.V.X.Z V m , . . . . . . . X 1 b M M O.t.t.t...M     ",
"      M M M M M l % . . X o = 3 D ;.1.).}.XX3XXXXX@X$X XXX@XXXXX,X,X8X>XW.V.$.S V m % . . . . . . . . . . & M M O.t.t.t.$.M     ",
"    M M M M M n & . . . . o o = 3 i ,.A.Z.8X,X,X,XXXXXXXXXXXXX,X,X<X>X-XV.$.A V b & . . . . . . . . . . . . h M Z #.+.#.C M M   ",
"    M M M M M k . . . . . . . o * 3 i E 1.A.-X>X,XXXXXoXXXXXXXXX-X-X;XV.$.S C V j . . . . . . O . . . . . . $ l M V A V M M M   ",
"    M M M M M & . . . . O r 2.-.; * - r p ,.Q.E..X.X.X,XXXXX.XE.Y.B.%.$.X.C M M , . . . . O e 2.<.; . . . . . 1 M M M M M M M   ",
"    M M M M b . . . . . p ~.(.(.~.* @ : y i :.Y.R..X.X.X.X|.|.T.M.%.X.S C M M M $ . . . . u ~.(.(.~.; . . . . , M M M M M M M   ",
"  hXaXaXaXaXg . . . . @ 3.(.(.(.(.r X * - t :.Y.T..X.X.X.X|.R.T.M.#.X.Z V M M M . . . . o 2.(.(.(.~.=.. . . . # aXaXaXaXaXaXaXjX",
"gXgXgXgXgXgXdX. . . . @ ^.(.(.(.(.p O @ - t ;.G.T.|..XXX.X.X|.I.M.O.| Z M M M M . . . . @ 2.~.(.(.(.=.. . . . > gXgXgXgXgXgXgXgX",
"gXgXgXgXgXgXfX. . . . O <.~.(.(.~.; o @ - t W G.T.oX.X.X.X|.R.I.M.@.| Z V M M M + . . . . =.(.(.(.(.r . . . O > gXgXgXgXgXgXgXgX",
"  gXgXgXgXgXgXO . . . . @ =.~.3.u . . . . .                                     . . . . . @ p ^.^.p . . . . . f gXgXgXgXgXgXgXgX",
"                . . . . O @ = = o . . . . .                                       . . . . O o = = O . . . . .                   ",
"                . . . . . . . . . . . . . .                                       . . . . . . . . . . . . .                     ",
"                  . . . . . . . . . . . .                                           . . . . . . . . . . . .                     ",
"                    . . . . . . . . . .                                               . . . . . . . . . .                       ",
"                      . . . . . . .                                                     . . . . . . . .                         ",
"                                                                                                                                ",
"                                                                                                                                ",
"                                                                                                                                ",
"                                                                                                                                "
};
