/* XPM */
static char *_10881c8108f4351e64b3c9761705b2a2gcZWqR6RMsCeUQ3[] = {
/* columns rows colors chars-per-pixel */
"64 64 228 2 ",
"   c None",
".  c #000000",
"X  c #090301",
"o  c #0A0A02",
"O  c #040C09",
"+  c #160704",
"@  c #1C1602",
"#  c #171805",
"$  c #141C1E",
"%  c #250409",
"&  c #2A050A",
"*  c #3B070E",
"=  c #231C02",
"-  c #262807",
";  c #3E3206",
":  c #34390C",
">  c #322907",
",  c #002E2E",
"<  c #4A0812",
"1  c #4B0D10",
"2  c #780D1D",
"3  c #473906",
"4  c #5B371B",
"5  c #4E2813",
"6  c #69371C",
"7  c #583923",
"8  c #683C22",
"9  c #743C23",
"0  c #6B2E22",
"q  c #3E450F",
"w  c #534308",
"e  c #525C14",
"r  c #6B580E",
"t  c #694A11",
"y  c #5C6616",
"u  c #766314",
"i  c #6A7619",
"p  c #726C13",
"a  c #694127",
"s  c #794928",
"d  c #7F4C34",
"f  c #005151",
"g  c #446871",
"h  c #820E1F",
"j  c #81361E",
"k  c #9D1226",
"l  c #851020",
"z  c #A21227",
"x  c #BB152D",
"c  c #942627",
"v  c #B1242B",
"b  c #CB1631",
"n  c #DB1834",
"m  c #D41833",
"M  c #CA192F",
"N  c #E51937",
"B  c #D12C2B",
"V  c #E9382D",
"C  c #E62235",
"Z  c #E72A34",
"A  c #E82E32",
"S  c #E93431",
"D  c #EA3C33",
"F  c #83571B",
"G  c #845F05",
"H  c #96671D",
"J  c #806911",
"K  c #A97C1C",
"L  c #A7681B",
"P  c #834F2C",
"I  c #8B512D",
"U  c #995A32",
"Y  c #92572C",
"T  c #B25325",
"R  c #976E2E",
"E  c #A76B2B",
"W  c #B8792A",
"Q  c #AA7230",
"!  c #B34518",
"~  c #F05E1B",
"^  c #D77C13",
"/  c #FA7D02",
"(  c #F1701D",
")  c #EC4B2B",
"_  c #EC4828",
"`  c #EE582B",
"'  c #ED5831",
"]  c #EC4D30",
"[  c #EE6225",
"{  c #F26D26",
"}  c #F37C24",
"|  c #F0712A",
" . c #F27727",
".. c #EE6534",
"X. c #F17E38",
"o. c #977045",
"O. c #7A881D",
"+. c #82901F",
"@. c #A78C19",
"#. c #B88318",
"$. c #B3880B",
"%. c #9D8623",
"&. c #8C9C22",
"*. c #BB902E",
"=. c #98A925",
"-. c #A7B928",
";. c #CF8E17",
":. c #FA8405",
">. c #FA8B06",
",. c #FB8C09",
"<. c #F88509",
"1. c #FB940B",
"2. c #FB9A0D",
"3. c #FA9504",
"4. c #F78E1E",
"5. c #F58618",
"6. c #FC9E11",
"7. c #F9951A",
"8. c #FA9B1A",
"9. c #F79218",
"0. c #ED8F10",
"q. c #FBA30D",
"w. c #FBA901",
"e. c #FBB30D",
"r. c #FBB402",
"t. c #ECA71C",
"y. c #FCA313",
"u. c #FBAC15",
"i. c #FBA31C",
"p. c #FCAC1B",
"a. c #F7A61E",
"s. c #FDB41B",
"d. c #FCBB1D",
"f. c #FAB417",
"g. c #C58B26",
"h. c #D69A24",
"j. c #CC972A",
"k. c #F48223",
"l. c #F38829",
"z. c #F59D24",
"x. c #F59A2C",
"c. c #F69422",
"v. c #F39038",
"b. c #DCA72A",
"n. c #D9BF36",
"m. c #CFAF2C",
"M. c #E3A826",
"N. c #FBAC23",
"B. c #F7A62E",
"V. c #F8A927",
"C. c #ECB325",
"Z. c #E4B52D",
"A. c #ECBE2D",
"S. c #E7B628",
"D. c #FBB325",
"F. c #F9B32C",
"G. c #FABB2C",
"H. c #FABE21",
"J. c #F5AD33",
"K. c #F7AD3D",
"L. c #E7BC32",
"P. c #F9BD33",
"I. c #F8BC3B",
"U. c #F8B437",
"Y. c #E1A335",
"T. c #D1A91B",
"R. c #B6CA2B",
"E. c #B5CA2B",
"W. c #FCC01B",
"Q. c #FBC209",
"!. c #C1D72E",
"~. c #DFC330",
"^. c #ECC62D",
"/. c #FBC324",
"(. c #FCCB2B",
"). c #FAC32B",
"_. c #FCD32B",
"`. c #ECC432",
"'. c #ECCB35",
"]. c #ECCD39",
"[. c #E5C633",
"{. c #FBC336",
"}. c #F3CC33",
"|. c #FBCD35",
" X c #FAC53A",
".X c #FBCC3C",
"XX c #F3C736",
"oX c #EDD43C",
"OX c #EED339",
"+X c #FBD33C",
"@X c #FCDD3A",
"#X c #F6D737",
"$X c #FDE63D",
"%X c #FDE036",
"&X c #BC8E57",
"*X c #C28C46",
"=X c #F8BB44",
"-X c #F6A840",
";X c #F9C342",
":X c #FACE42",
">X c #FACC48",
",X c #EDD641",
"<X c #EDDB43",
"1X c #E8DC4A",
"2X c #FBD542",
"3X c #F4DA44",
"4X c #FBD944",
"5X c #FCDE4A",
"6X c #F4D741",
"7X c #F4CE4A",
"8X c #EEE34C",
"9X c #FDEC44",
"0X c #FCE24C",
"qX c #FCE747",
"wX c #FDF24B",
"eX c #FCE652",
"rX c #FDEB55",
"tX c #FDEF59",
"yX c #F6EB55",
"uX c #FDF15B",
"iX c #FDF650",
"pX c #4F7D87",
"aX c #4B7F88",
"sX c #009494",
"dX c #00A8A8",
"fX c #00B1B0",
"gX c #15A3A5",
"hX c #309197",
/* pixels */
"                                                                                                                                ",
"                                                                                                                                ",
"                                                      /                                                                         ",
"                                                  / / / /                                                                       ",
"                                                  / / / /                                                                       ",
"                                                / / / /                                                                         ",
"                                              / / / / / /                                                                       ",
"                                              / / / / / /                                                                       ",
"                                            / / / / / / / / /                                                                   ",
"                                            ,./ / / / / / / /                                                                   ",
"                                          ,.:./ / / / / / / / /                                                                 ",
"                                            ,.:./ / / / / / / / /                                                               ",
"                                            ,.,./ / / / / / / / :.                                                              ",
"                                      :.:.:.,.<./ / / / / / / :.:.                                                              ",
"                                    :.:.:.,.1.,.<./ / / / / :./ :.                                                              ",
"                                    :./ :.,.,.,.<.:./ / / / :.:.:.                                                              ",
"                                    :.:.:.>.1.1.1.:./ / / <.,.:.>.,.                                                            ",
"                                  1.>.:.>.,.1.2.6.1.,./ ,.:.<.,.,.,.                                                            ",
"                                    1.:.:.>.1.6.y.6.,.,.<.,.,.1.,.1.                                                            ",
"                                  q.,.:.:.,.1.6.y.y.6.2.,.,.1.1.1.1.1.                                                          ",
"                                u.q.3.>.>.>.1.6.u.p.u.y.2.2.6.2.2.2.2.                                                          ",
"                              u.s.u.y.>.>.>.2.y.u.s.p.u.2.y.6.y.q.2.2.                                    /                     ",
"                              d.d.f.y.1.>.>.2.y.s.d.D.s.y.y.y.2.y.2.2.  2.                            / / /                     ",
"                              d./.f.u.3.1.1.2.y.s.D.D.p.8.8.8.7.7.5.5.9.8.p.                          / / /                     ",
"                              d./.d.u.q.1.1.2.y.N.D.N.N.N.8.8.8.8.8.c.8.c.k.k.k.                        / /                     ",
"                            e.d./.d.f.y.,.1.7.i.N.D.D.N.N.N.N.8.t.t.t.M.z.l. . .]                     / / / / /                 ",
"                            e.W.(./.s.i.,.9.8.N.F.P.{.{.{.{.P.F.C.C.C.M.J.B.x.l.] D               / / :.1./ / /                 ",
"                            e.W.(.).D.8.7.8.i.G..X2X2X:X.X:X.XA.A.XXA.A.Z.L.Y.j.W T j 0 a 7       / / :.p.2./ / /               ",
"                            e.W.).G.F.D.N.N.). X2X5X>X5X5X>X2XXX`.`.`.A.`.L.Z.b.j.W Q 8 o.&X4 :.  :.>.3.s.s.y.1.>.              ",
"                            e.i.V.P.{.G..X{.{..X2X5X5X5XeXeX4XXX].'.'.[.[.`.`.Z.Y.W Q U s d       >.1.s.(.d.d.p.>.>.            ",
"                            y.4.V.XX.X2X2X2X.X.X4X0X0XeXeXeX5X,XoX].[.[.[.`.XXL.b.W I a I 0 C :.3.3.u.d.@X/.d.s.3.3.            ",
"                            5.z.F.:X4X0X5X5X2X2X5X0XeXtXtXtX5X<X,X].].'.[.'.L.M.g.E 5 + 8 a N _ 3.q.W./.qX(._.d.(.q.3.          ",
"                          ( } c.I.5X0XeXeXeX5X5X0X8XuXuXuXuX8XoXoXoXoXoXOX}.C.;.L Q s 8 I s m ~ G./._.(.@XiXwX@XqXd.e.          ",
"                        y.5.4.F.2X5X0XeXeXeXeXeXeXyXuXuXuXyX<XoX,X,XoXoXOX}.C.$.K &XR P U I ! >.U.#X9X%X$XiXiX9X@XqXf.w.        ",
"                        k.c.V. X0X0XeXrXrXtXtXtXtXtXuXuXuX8XoX8X,X<XoXoX'.^.S.h.g.W K Y I s 6 0.F. XwX9XwXwXwXwX9XwXW.r.w.      ",
"                      9.} B.F.+X5X0XeXrXrXtXtXiXtXuXuXuXuX8X8XoX<XoXoXoX}.^.A.`.S.b.g.H 6 4 L 0.=X;X4XwXwX9X9X9X9X9X_.r.        ",
"                      { k.B.A.4X5X0XeXrXrXtXuXuXuXuXuXuXuX8X<X8X8XoX8XoX#X^.^.^.S.S.h.H F s Q 0. X=X:XqX9X9X9X9X$X9X$XQ.        ",
"                      [ } l..X4XqX0XrXrXrXtXiXtXuXuXuXuXtX8X8XoX#X8XoXoX#XOX#X^.A.S.T.R H a d H I.I.I.@X$X$X$X$X$X$X%XQ.        ",
"                    C C V [ F.|.+X4X5X5X0X0X0X0X0X0X0X0X0X0X0X4XqX0X5X0X4X+X+X|.|.I.U.Q P 4 j a C.=XI.I.{..X+X@XqXrX_.          ",
"                N N N C V ) 5.f.}.+X4X+X4X2X4X4X2X4X4X4X4X4X4X4X4X3X4X6X+X|.|.).F.B.k.T 6 6 9 c [ J.=X=XI.P.I.;X>X_.            ",
"            N N N N N C A _ j.S.'.1X1X2X4X4X4X4X4X4X4X4X2X4X4X4X8X1X1X1X<X|.).G.V.| ] v c c v b N V  .B.U.K.U.B.} D             ",
"          N N N N N N N A _ ;.S.[.oX6X+X+X2X+X2X4X4X+X4X4X+X4X4X<X1X1X1X6X|.).a.5._ N n b n N N N N N N N N N N N N N N         ",
"          N N N N N N C Z _ 5.e./.|.+X+X+X+X+X4X+X+X+X+X+X+X+X+X2X2X2X+X+X|.G.z.( D N N N N N N N N N N N N N N N N N N         ",
"        N N N N N N N N C v ;.2.H.}.+X+X+X+X+X+X+X+X+X+X+X+X+X+X+X+X+X2X.X{.F.l.[ S N N N n x z z x N N N N N N N S ] A N       ",
"      N N N N N N N b l * 5 G $.T.^.}.oX+X+X+X+X+X+X+X+X+X+X.X+X+X+X2X:X:XP.B.| ) Z N b 2 < % + + & < k m N N N S } 4.} S N     ",
"      N N N N N N M * . X @ w G @.m.[.].+X+X+X.X|.+X|.+X.X|.+X+X+X:X:X>X;XJ.l.] A C b 1 . . . . . . . X 2 m N N { 4.4.4.` N     ",
"      N N N N N x & . . . o > w u @.m.m.].XX:X.X.X.X+X.X.X+X|..X:X>X>X;XK.v...D C M % . . . . . . . . . . < N N { 4.7.c.[ N     ",
"    N N N N N m * . . . . o + - 3 r %.m.n.7X>X2X+X.X.X|..X.X.X:X:X>X;X=Xv.' D Z n * . . . . . . . . . . . . h N A  .}  .Z N N   ",
"    N N N N N k X . . . . . X o = ; u %.*.n.=X:X.X.X.X.X.X:X.X:X=X=X-Xv...] C N k . . . . . . . . . . . . . % x N C S C N N N   ",
"    N N N N N * . . . . O e =.O.: @ ; t i %.Y.U.I..X.X X.X X{.I.K.v.X...] Z C N < . . . . O w =.&.: . . . . . 2 N N N N N N N   ",
"    N N N N n X . . . . i R.!.!.R.- @ > w u g.K.P.{. X X.X{.P.P.B.X.' ] C N N N % . . . . y R.!.!.R.: . . . . < N N N N N N N   ",
"  gXaXpXpXpXg . . . . # -.!.!.!.R.y o @ ; r %.B.P.{. X X X XP.F.x.| ] A C N N N . . . . O =.!.!.!.R.O.. . . . $ pXpXpXpXpXpXpXhX",
"fXfXfXfXfXfXsX. . . . = E.!.!.!.!.i o @ ; r @.B.U.{. X X X XP.F.x.| ) A C N N N . . . . # =.!.!.!.!.O.. . . . , fXfXfXfXfXfXfXfX",
"fXfXfXfXfXfXdX. . . . O &.!.!.!.R.: X @ ; r W B.P.{. X X X X{.F.x.{ ) A C N N N + . . . . O.!.!.!.!.e . . . . , fXfXfXfXfXfXfXfX",
"  fXfXfXfXfXfXO . . . . # O.R.-.y . . . . .                                     X . . . . # i E.E.i . . . . . f fXfXfXfXfXfXfXfX",
"                . . . . . # - = o . . . . .                                       . . . . . o - - O . . . . .                   ",
"                . . . . . . . . . . . . . .                                       . . . . . . . . . . . . .                     ",
"                  . . . . . . . . . . . .                                           . . . . . . . . . . . .                     ",
"                    . . . . . . . . . .                                               . . . . . . . . . .                       ",
"                      . . . . . . .                                                     . . . . . . . .                         ",
"                                                                                                                                ",
"                                                                                                                                ",
"                                                                                                                                ",
"                                                                                                                                "
};
