/* XPM */
static char *_4c9b4aba6e34edea0ff3910fe135e01McAVNQmMipfP0YeO[] = {
/* columns rows colors chars-per-pixel */
"64 64 225 2 ",
"   c None",
".  c #000000",
"X  c #0B0A01",
"o  c #070604",
"O  c #180506",
"+  c #141303",
"@  c #191A05",
"#  c #141C1E",
"$  c #260409",
"%  c #3B070E",
"&  c #251E02",
"*  c #262B09",
"=  c #33380C",
"-  c #342B07",
";  c #002E2E",
":  c #4A0812",
">  c #501110",
",  c #780D1D",
"<  c #6C1D1D",
"1  c #493903",
"2  c #58351B",
"3  c #542B15",
"4  c #67371E",
"5  c #593922",
"6  c #582E22",
"7  c #683C22",
"8  c #743C23",
"9  c #753530",
"0  c #3E450F",
"q  c #514109",
"w  c #525C14",
"e  c #704F0F",
"r  c #5C6616",
"t  c #776316",
"y  c #687319",
"u  c #5E412F",
"i  c #794829",
"p  c #70452B",
"a  c #005151",
"s  c #446871",
"d  c #89171E",
"f  c #991325",
"g  c #A61328",
"h  c #BB152D",
"j  c #992729",
"k  c #892A25",
"l  c #AD222C",
"z  c #CB1631",
"x  c #DB1834",
"c  c #D41833",
"v  c #CA1A2F",
"b  c #E51937",
"n  c #CA3A22",
"m  c #E92D2F",
"M  c #E9332D",
"N  c #EA3B2B",
"B  c #EC3E25",
"V  c #E62434",
"C  c #E62932",
"Z  c #E82E34",
"A  c #E93432",
"S  c #EA3830",
"D  c #B55016",
"F  c #856708",
"G  c #9D7118",
"H  c #99611A",
"J  c #AB6B1A",
"K  c #AB7419",
"L  c #B37214",
"P  c #854B2A",
"I  c #8C512E",
"U  c #8E5C27",
"Y  c #9B5A32",
"T  c #834F32",
"R  c #A05E31",
"E  c #94652A",
"W  c #A7632C",
"Q  c #B36E23",
"!  c #BD7523",
"~  c #A77133",
"^  c #EF5B1F",
"/  c #F15E19",
"(  c #CE7611",
")  c #FA7D02",
"_  c #F6730F",
"`  c #F16819",
"'  c #F57B12",
"]  c #F37414",
"[  c #EC4929",
"{  c #EE5422",
"}  c #EE5C24",
"|  c #EC5232",
" . c #ED5130",
".. c #C47B22",
"X. c #EE6023",
"o. c #F1732B",
"O. c #F37924",
"+. c #F16C2A",
"@. c #E93840",
"#. c #9A6F43",
"$. c #E26F56",
"%. c #7A881D",
"&. c #82901F",
"*. c #B49818",
"=. c #8C9C22",
"-. c #A58E22",
";. c #98A925",
":. c #A7B928",
">. c #B8A132",
",. c #C98516",
"<. c #D78B15",
"1. c #D59215",
"2. c #C09209",
"3. c #E88A0E",
"4. c #FA8404",
"5. c #FA8B05",
"6. c #FB8C09",
"7. c #F6870C",
"8. c #FB930C",
"9. c #FB990D",
"0. c #FA9606",
"q. c #F68211",
"w. c #F98B11",
"e. c #F78E1E",
"r. c #F58815",
"t. c #EB9613",
"y. c #F99414",
"u. c #F89B16",
"i. c #E49B0A",
"p. c #D9A91D",
"a. c #FBA502",
"s. c #FBAA01",
"d. c #FBA50C",
"f. c #ECAC13",
"g. c #ECAA1C",
"h. c #E8A419",
"j. c #FCA313",
"k. c #FCAB15",
"l. c #FAA41B",
"z. c #F7A91B",
"x. c #E9B61D",
"c. c #FCB41A",
"v. c #FBB91E",
"b. c #F9B516",
"n. c #FBB402",
"m. c #D98D29",
"M. c #D79929",
"N. c #CA9629",
"B. c #F58121",
"V. c #F49129",
"C. c #F28434",
"Z. c #F79C36",
"A. c #D1B32B",
"S. c #E0AA25",
"D. c #FBAA22",
"F. c #F6A32D",
"G. c #F8AA27",
"H. c #EBB726",
"J. c #FAB323",
"K. c #FCBC21",
"L. c #FBB42A",
"P. c #F6B526",
"I. c #F7AE33",
"U. c #F6A83D",
"Y. c #F9BB32",
"T. c #F8BC3B",
"R. c #F8B337",
"E. c #B6CA2B",
"W. c #B5CA2B",
"Q. c #FBC20E",
"!. c #C1D72E",
"~. c #DFC63B",
"^. c #ECC62E",
"/. c #FCCC2B",
"(. c #FBC327",
"). c #FCD32B",
"_. c #EBC935",
"`. c #FBC235",
"'. c #FBCB34",
"]. c #FAC53A",
"[. c #FBCC3B",
"{. c #F3CF36",
"}. c #EDD23B",
"|. c #ECD83F",
" X c #FBD23C",
".X c #FCDD3A",
"XX c #FAD634",
"oX c #FDE63D",
"OX c #FDE036",
"+X c #BC8E57",
"@X c #C28C46",
"#X c #F7B944",
"$X c #F48A46",
"%X c #F9C343",
"&X c #FACE42",
"*X c #FACD48",
"=X c #EDDC44",
"-X c #EDDD49",
";X c #E7DA48",
":X c #FBD542",
">X c #F3DC44",
",X c #FBD944",
"<X c #FCDE4A",
"1X c #F7D445",
"2X c #F4CD4A",
"3X c #EEE34C",
"4X c #EEE146",
"5X c #FDEC44",
"6X c #FCE24D",
"7X c #FDE946",
"8X c #FDF24B",
"9X c #FDE653",
"0X c #FDEA55",
"qX c #FDEF58",
"wX c #F6EC57",
"eX c #FDF25C",
"rX c #FDF650",
"tX c #FDF661",
"yX c #4F7D87",
"uX c #4B7F88",
"iX c #009494",
"pX c #00A8A8",
"aX c #00B1B0",
"sX c #15A3A5",
"dX c #309197",
/* pixels */
"                                                                                                                                ",
"                                                                                                                                ",
"                                                                                                                                ",
"                                                                                                                                ",
"                                                                                                                                ",
"                                                                                                                                ",
"                                                                                                                                ",
"                                                    ) )                                                                         ",
"                                                ) ) ) )                                                                         ",
"                                                ) ) ) )                                                                         ",
"                                                ) ) ) )                                                                         ",
"                                                ) ) ) )                                                                         ",
"                                                ) ) ) )                                                                         ",
"                                                ) ) ) )                                                                         ",
"                                                ) ) ) ) )                                                                       ",
"                                              ) ) ) ) ) ) ) ) )                                                                 ",
"                                              ) ) ) ) ) ) ) ) )                                                                 ",
"                                            ) ) 4.4.4.) ) ) ) )                                                                 ",
"                                      ) ) ) 4.4.6.6.4.4.) ) ) ) 4.                                                              ",
"                                    ) ) ) ) ) 4.6.9.y.6.4.) 4.) )                                                               ",
"                                    4.) ) ) 4.4.y.j.j.9.6.4.4.4.) )                                                             ",
"                                    4.4.4.4.6.6.9.k.k.j.9.8.6.6.5.4.                                      )                     ",
"                                    4.4.5.4.6.9.j.c.c.c.k.u.u.9.6.5.4.                                ) ) )                     ",
"                                    4.4.4.5.6.9.j.D.k.l.u.y.y.w.7._ / B                               ) ) )                     ",
"                                    5.5.5.5.8.u.l.D.D.D.l.u.l.y.w.' ` [ m b b                           ) )                     ",
"                                    5.5.8.6.w.u.D.L.L.D.D.D.D.u.t.3.( D n b b b b                     ) ) ) ) )                 ",
"                                    5.6.w.w.u.k.L.Y.`.`.`.`.L.l.u.3.,.! $.@.V b b b               ) ) 4.8.) ) )                 ",
"                                  ' ' q.y.y.D.L.[.,X:X[.'.`.Y.g.h.u.<.L U ~ P P k j < 6 p 5       ) ) 4.k.9.4.) )               ",
"                                7.] q.y.u.G.Y.`.:X<X<X*X[.].Y.g.g.g.1.L J J W Q R Y I 7 #.+X2 4.  4.5.9.c.c.j.8.4.              ",
"                                ` w.9.u.Y.`.].[.,X9X6X,X,X:X].G.H.H.S.1.( <.! ! W R Y Y i i       6.8.c.(.v.K.k.5.5.            ",
"                              M ` 7.j.L.`.Y.`.[.:X9X<X,X:X:X].H.H.H.S.,.L ( ! ! R Y i 7 I 9 b ) 5.0.k.v..X(.v.c.0.0.            ",
"                            m [ o.I.`.`.'.[. X X,X<X9X9X9X9X1X^.^.^.H.1.2.<.....W Y 3 + 7 p b ^ 0.a.(.(.7X).).v./.d.9.          ",
"                          V A { Z.*X X X:X:X:X X<X<XwXeXeXeX=X}._._.^.H.g.g.m.K U ~ i p I i c ^ I.(.)./.OXrXrX.X7Xv.b.          ",
"                          N { r.%X,X,X<X6X6X6X6X<X9XqXtXtXwX3X=X}.}.{._.^.g.M.K U @XE T R I D 7.R.XX5X.XoXrXrX5X.X7Xb.s.        ",
"                s.s.s.0.] { ` G.[.,X<X6X0X0X0X6X9X9XqXtXtX3X4X=X=X}.}.}.^.f.M.M.! ~ E I I p e 3.I.T.8X5X8X8X8X8X5X8XQ.s.s.      ",
"                s.s.s.0.q.' r.c.'.,X6X6XqX0XqXqX0XqXeXeXtX3X4X;X=X|.|.|.^.x.h.g.1.L J 7 3 5 J t.].%X6X5X5X8X5X5X5X5XXXn.        ",
"                s.s.s.7.' 7.z.K.'.,X6X6XqXqXeXqXeXeXeXeXeX3X=X=X4X=X=X>X{.Q.f.f.i...L 2 3 i ~ <.T.%X&X7XoX5X5XoX5XoXOXQ.        ",
"                s.s.8.q.' 7.c.K.'.,X6X0XqXqXqXqXeXqXeXeXeX4X4X4X4X=X=X>X{.x.f.f.t.,.Q u 5 p P H T.T.%X.XoXoXoXoXoXoXOXQ.        ",
"                    [ ^ } q.j.c./. X,X6X6X6X6X6X6X6X6X6X6X6X6X,X6X6X6X<X X`.v.b.k.$X$.9 6 2 i 8 G.#XT.].].{..X.X5X0X).          ",
"                b V b B N ] y.f.(. X,X X,X,X,X,X,X,X,X,X,X,X,X,X,X>X>X>X X(.v.b.9. .@.f 3 4 8 j X.I.#X#XT.R.#X%X<X).            ",
"            b b b b b M N ` N.p._.;X;X:X:X,X,X,X,X,X,X,X,X,X,X,X-X;X;X;X=X'.c.v.u.{ b g k j h c b [ O.F.R.U.R.F.o.N             ",
"          b b b b b b M M } m.x.^.;X>X:X:X X X:X X:X:X X X:X,X,X>X=X;X;X|.[.J.J.t.[ b b z c x b b b b b b b b b b b b b         ",
"          b b b b b b M m { q.k.K.'. X X X,X X X X.X X X X X X X X X:X:X X'.G.F.] [ b b b b b b b b b b b b b b b b b b         ",
"        b b b b b b b C C n ( <.H.`.XX X X X X X X X X X X X X X X X:X:X[.Y.V.V.X.S b b b x h g g h b b b b b b b A [ Z b       ",
"      b b b b b b b z d > 1 F 2.p.^.{.1X X X X X X X X X X X X X X:X:X:X[.Y.V.V.X.A b c , : $ O O $ : f c b b b S e.B.' A b     ",
"      b b b b b b z % X O + 1 F *.A._.}. X X X XXX X[.[.'. X[. X[.&X1X*X].I.o.o.S V h > . . . . . . o o , x b b +.e.V.V.} b     ",
"      b b b b b h $ . o o o & 1 F *.A.~.}.[.&X[. X[.[.[. X[.{.[. X&X*X#XU.o.| | V v $ . . . . . . . . . . % b b +.w.V.y.| b     ",
"    b b b b b x % . . . . . + @ = t -.A.~.2X*X&X[. X[. X[.[.&X&X&X*X%X#XC. .Z Z x % o . . . . . . . . . . . d b Z O.O.O.A b b   ",
"    b b b b b g . . . . . . . . + - t -.>.N.#X#X&X[.[.[.[.[.[.[.*X#XU.C.| V b b f . . . . . . . . . . . . . $ h b V A V b b b   ",
"    b b b b b % . . . . o w ;.%.= + - 1 t t m.R.T.].[.].].].].`.I.C.| | A V b b : . . . . X 0 ;.=.= . . . . . , b b b b b b b   ",
"    b b b b x . . . . . y !.!.!.E.@ X & q q Q F.Y.`.].].].`.`.Y.F.o.[ V b b b b $ . . . . w E.!.!.E.= . . . . : b b b b b b b   ",
"  sXyXyXyXyXs . . . . @ :.!.!.!.!.w X & q q G I.Y.].].].`.`.`.Y.F.o. .Z V b b b . . . . + ;.!.!.!.E.%.. . . . # yXyXyXyXyXyXyXdX",
"aXaXaXaXaXaXiX. . . . @ :.!.!.!.!.r X & q q G F.Y.T.].].].`.`.Y.F.o.[ Z b b b b . . . . + ;.!.!.!.!.%.. . . . ; aXaXaXaXaXaXaXaX",
"aXaXaXaXaXaXpXo . . . o ;.E.!.!.!.= X * q 1 K F.Y.`.].].].`.`.Y.F.o.[ C b b b b O . . . . %.!.!.!.!.w . . . o ; aXaXaXaXaXaXaXaX",
"  aXaXaXaXaXaXo . . . . X =.E.:.r . . . . .                                     . . . . . @ y W.W.y o . . . . a aXaXaXaXaXaXaXaX",
"                . . . . . + * * o . . . . .                                       . . . . . + * * o . . . . .                   ",
"                . . . . . . . . . . . . . .                                       . . . . . . . . . . . . .                     ",
"                  . . . . . . . . . . . .                                           . . . . . . . . . . . .                     ",
"                    . . . . . . . . . .                                               . . . . . . . . . .                       ",
"                      . . . . . . .                                                     . . . . . . . .                         ",
"                                                                                                                                ",
"                                                                                                                                ",
"                                                                                                                                ",
"                                                                                                                                "
};
