/* XPM */
static char *_4763e0f206a4941ccf235169f79cdecqgYvkbxGAcy0gcob[] = {
/* columns rows colors chars-per-pixel */
"64 64 209 2 ",
"   c None",
".  c #020204",
"X  c #02040A",
"o  c #0C070B",
"O  c #0C0C0C",
"+  c #090808",
"@  c #081108",
"#  c #020914",
"$  c #020C1B",
"%  c #080911",
"&  c #0E121A",
"*  c #141314",
"=  c #1A191A",
"-  c #14191B",
";  c #191509",
":  c #22201F",
">  c #071528",
",  c #051B31",
"<  c #1C1F22",
"1  c #2C1329",
"2  c #291524",
"3  c #341A2B",
"4  c #242525",
"5  c #352B34",
"6  c #373637",
"7  c #31302F",
"8  c #403C2F",
"9  c #185A0B",
"0  c #1D7608",
"q  c #4C4C17",
"w  c #686B0D",
"e  c #484A2E",
"r  c #45482D",
"t  c #474831",
"y  c #576809",
"u  c #1C3C58",
"i  c #271560",
"p  c #352F4C",
"a  c #51314C",
"s  c #60345B",
"d  c #3F4246",
"f  c #464646",
"g  c #4A4949",
"h  c #4D574A",
"j  c #555455",
"k  c #5C5C5C",
"l  c #575758",
"z  c #554F4D",
"x  c #604A54",
"c  c #6A6549",
"v  c #5C5E61",
"b  c #5E6161",
"n  c #656665",
"m  c #6C6C6C",
"M  c #65686C",
"N  c #747575",
"B  c #7C7C7B",
"V  c #777779",
"C  c #706F71",
"Z  c #B30C12",
"A  c #DA0D15",
"S  c #D80C17",
"D  c #D60C0E",
"F  c #ED070A",
"G  c #E8090E",
"H  c #FC0202",
"J  c #F60608",
"K  c #E20A11",
"L  c #F1110C",
"P  c #FC3A03",
"I  c #FB3A09",
"U  c #D4430A",
"Y  c #FD4D03",
"T  c #F94607",
"R  c #FA5203",
"E  c #D27D11",
"W  c #FA7707",
"Q  c #BF116B",
"!  c #823C73",
"~  c #93466E",
"^  c #A6687F",
"/  c #A54870",
"(  c #7E871A",
")  c #2CC20F",
"_  c #2FFE04",
"`  c #33FE02",
"'  c #3CFD02",
"]  c #34E70A",
"[  c #2BF026",
"{  c #45FC07",
"}  c #68FB03",
"|  c #96A218",
" . c #8D8B0C",
".. c #D3810C",
"X. c #FC9404",
"o. c #FD9A02",
"O. c #FA9A08",
"+. c #FD8E05",
"@. c #F6AB03",
"#. c #B6FA07",
"$. c #B8F908",
"%. c #D3D510",
"&. c #D0CA0D",
"*. c #ECD409",
"=. c #DDFA05",
"-. c #C4F906",
";. c #FBE606",
":. c #FAEA06",
">. c #FDF102",
",. c #FDFE01",
"<. c #EFFC03",
"1. c #93945E",
"2. c #81807E",
"3. c #A9AA6D",
"4. c #A7AA6D",
"5. c #A6AA72",
"6. c #A8A972",
"7. c #4523AD",
"8. c #0C69AF",
"9. c #0E5991",
"0. c #4633CD",
"q. c #5634E8",
"w. c #5D3CFD",
"e. c #5D36F0",
"r. c #6635FD",
"t. c #6933FC",
"y. c #6139FD",
"u. c #6033F5",
"i. c #1372CE",
"p. c #1C7EFD",
"a. c #5642FC",
"s. c #4D50FA",
"d. c #F91990",
"f. c #FA2498",
"g. c #FB2AA5",
"h. c #F632A9",
"j. c #F73BB5",
"k. c #FA3CB6",
"l. c #9F4493",
"z. c #994888",
"x. c #B5728C",
"c. c #BF57B1",
"v. c #AA4998",
"b. c #C47896",
"n. c #D4759B",
"m. c #E46A9B",
"M. c #E1709E",
"N. c #C656B5",
"B. c #C446A5",
"V. c #FA42BB",
"C. c #FC65A3",
"Z. c #F369A1",
"A. c #D55BC4",
"S. c #FC49C5",
"D. c #FA54CB",
"F. c #FC5AD7",
"G. c #E25EC5",
"H. c #DC61CB",
"J. c #FB66DC",
"K. c #F171D9",
"L. c #FE6BE6",
"P. c #FD6AE9",
"I. c #F96BE5",
"U. c #FB72E2",
"Y. c #F96BF1",
"T. c #159798",
"R. c #198F94",
"E. c #10B7B3",
"W. c #17C68E",
"Q. c #16C592",
"!. c #1BC391",
"~. c #0AAFCC",
"^. c #0AAFC6",
"/. c #09AAD5",
"(. c #1783FC",
"). c #029DF4",
"_. c #0596FF",
"`. c #019AFD",
"'. c #0B92FD",
"]. c #0C8DFE",
"[. c #838383",
"{. c #8D8D8D",
"}. c #888687",
"|. c #918C91",
" X c #A68491",
".X c gray64",
"XX c gray",
"oX c #D496B6",
"OX c #D9DC8D",
"+X c #D9DC90",
"@X c #C4C788",
"#X c #F7FE9F",
"$X c #F9DDB3",
"%X c #F8D6B6",
"&X c #F8D1B5",
"*X c #F9E9AD",
"=X c #FBFEA5",
"-X c #F8F8A8",
";X c #FAE3B2",
":X c #F899D4",
">X c #FA91CF",
",X c #F6A4CE",
"<X c #F9A5CE",
"1X c #F3AACA",
"2X c #F3A8C7",
"3X c #F9B9C2",
"4X c #F3A4D2",
"5X c #D0D0D0",
"6X c #E7E7E7",
/* pixels */
"                                                                                                                                ",
"                                                                                                                                ",
"                                                                                                                                ",
"                                                                                                                                ",
"                                                                                                                                ",
"                                                                                                                                ",
"                                                                                                                                ",
"                                                                                                                                ",
"                                                                                                                                ",
"                                                                                                                                ",
"                                                                                                                                ",
"                                                                                                                                ",
"                                                                                                                                ",
"                                                                                                                                ",
"                                                                                                                                ",
"                                                            # # X X X X X X X X X X X X X X X X X . X X X X #                   ",
"                                                          - t e e e e e e t e r e e t t e t r r r e e e e e r                   ",
"                                                        4 t =X=X=X=X=X=X=X=X=X=X=X=X=X=X=X=X=X=X=X=X=X=X=X=X@X*                 ",
"                                                      . 5.=X=X=X*X1X1X1X1X1X2X1X1X1X1X1X1X1X2X,X2X2X4X&X#X=X-X@X% ,             ",
"                                                      . 5.=X=X*X%XP.Y.P.P.P.P.P.S.F.P.P.D.S.I.P.P.P.L.>X;X-X=XOX+ >             ",
"F F F F K             S K K K G S             S A D Z . 5.#X=X:XU.L.L.L.L.L.L.P.f.S.P.L.V.g.I.L.L.L.L.I.I.$X=X+X+               ",
"H H H H F A A A A A A J H H H H J K G F F F G H H H D . 5.*X3XU.J.d.F.L.P.U.P.L.L.L.I.L.I.P.P.P.L.P.I.L.L.:X&XOX+               ",
"H H H H H H H H H H H H H H H H J J H H H H H H H H D . 5.;XP.L.I.k.F.L.L.P.L.P.P.P.L.N.v.l.A.P.P.L.V.j.L.L.:XOXO     $ $       ",
"Y Y Y R I J H H H H L Y Y Y Y R Y J H H H H J Y Y Y U . 5.$XI.P.I.I.P.P.L.P.L.L.L.P.P.! o % s U.I.L.g.g.P.P.:XOXo   X X X       ",
"o.o.o.o.W P P P P I Y X.o.o.o.o.+.P P P P P T X.o.o.E . 4.$XP.L.L.L.L.L.L.L.P.L.P.L.a z V N a 3 G.I.L.L.U.L.1XOX+ X j N N * X   ",
"o.o.o.o.+.o.o.o.o.X.X.X.o.o.o.o.o.O.o.o.o.o.X.o.o.o.... 4.$XL.P.P.L.L.L.P.L.D.h.L.L.1 a {.|.C l s N.P.P.L.L.<Xc * b 2.{.{.O X   ",
"o.o.o.o.o.o.o.o.X.o.o.o.o.o.o.o.o.o.o.O.O.o.o.O.o.o.... 6.$XL.L.L.L.L.P.P.L.D.h.L.L.1 g {.{.{.{.4 z.H.H.H.H.oX6 4 {.{.{.{.O X   ",
",.>.>.>.*.o.o.o.o.o.@.:.>.>.>.:.:.X.o.E E ..O.>.>.>.&.. 5.$XL.P.L.P.L.P.L.P.P.P.L.I.1 g {.{.{.|.[.5 o o o o O m }.{.{.{.{.O X   ",
",.,.,.,.>.:.;.;.;.:.;.,.,.,.,.,.,.;.%.; . ; *.,.,.,.%.. 4.$XL.P.P.P.h.V.L.P.P.L.I.P.1 g {.{.{.{.{.n j j l j j 2.{.{.{.{.{.* X   ",
",.,.,.,.,.,.,.,.,.,.,.,.,.,.,.,.,. .q z z z q &.,.,.%.. 5.$XL.P.L.P.j.S.P.U.P.I.D.G.1 f {.{.{.{.{.{.{.{.{.{.{.{.{.{.{.{.{.O X   ",
"#.#.#.#.-.,.,.,.,.,.<.$.$.$.$.$.-.w % [.{.N X w | | ( . 5.$XL.L.I.P.L.L.P.L.P.U.Q + N {.{.{.{.{.{.{.{.{.{.{.{.{.{.{.{.{.{.{.k X ",
"` ` ` ` } =.=.=.=.=.$.' ` ` ` _ { y O B {.N . . . . . . 5.$XL.g.k.L.P.L.L.L.P.L.B.. C {.{.{.5X6Xf n {.{.{.{.{.{..X6Xl z {.{.b X ",
"` ` ` ` ' ` ` ` _ ` ' ' ` ` ` ` ` ] ) @ n {.V 2.[.[.m . 6.$XL.g.j.L.P.L.L.L.P.P.c.. N {.{.{.XX6X7 k {.{.{.[.N }..X5Xd t {.{.k X ",
"` ` ` ` _ ` ` ` ` ` ` ` ` ` ` ` ` ` ] 0 h l l B {.{.N . 5.$XP.I.L.L.L.L.L.P.L.L.N.. N }.{.{.g o . k {.{.{.b . m m O . d {.{.k X ",
"~.~.~.~.Q.` ` ` ` ` [ E.^.~.~.^.E._ ` ` 9 @ @ b [.}.C . 3.$XI.L.I.L.I.L.I.d.k.L.N.. N x.M.M.x.n b ^ {.{.{.2.m }.[.n n x.M.M.~ . ",
"`.`.`.`./.Q.Q.Q.Q.Q.E.).`.`.`.`.).Q.W.W.T.T.R.u : 4 = . 5.;XU.P.L.j.J.L.L.S.F.L.N.. N b.C.C.n.}.l B {.{.N m {.{.}.l 2.b.C.C./ @ ",
"`.`.`.`.).`.`.`.`.`.`.`.`.`.`._.`.`.`.`.`.`.).i.8.8.9.. 5.#X-X>XJ.f.D.I.P.L.P.L.N.. m b.C.C.n.{.- l [.2.6 4 2.[.m . n b.Z.m./ . ",
"p.p.p.p.(.`.`.`.`.`.'.(.p.p.p.p.(._.`.`._.`.`.p.p.p.i.. 5.=X=X%X3XJ.L.L.P.U.L.L.K.v.5 x  X X X{.< @ = - O @ - = * . b |. X2 2   ",
"y.y.y.r.s.'._._._._.(.a.y.y.y.r.a.'._._._._.].w.r.u.0.o r 1.=X=X*X<X<X<X<X<X<X<X<X<Xc z b }.{.{.h d g f g f g f f f N V M & >   ",
"t.r.r.r.w.w.y.y.y.w.w.r.r.t.r.t.r.w.y.y.w.w.w.t.t.t.7.o 4 t 4.4.3.3.6.3.3.3.3.3.3.3.4.c + B {.{.{.{.{.{.{.{.{.{.{.{.{.f X       ",
"r.y.r.t.t.t.t.r.r.r.t.r.y.y.r.t.r.r.r.r.r.t.t.t.t.i p m [.6 . . X . . . . . . . . . . . X = : = : = - = = = = - = = = o         ",
"        0.r.t.r.t.r.e.0.        q.r.t.t.t.r.e.    % 7 {.|.6 X   # = }.[.B .                   X 6 j l 7 .   . 2 l l g .         ",
"          q.q.q.q.q.              q.q.u.u.        . 7 {.|.f .   # = {.{.[.X                   X j {.{.h .   X 7 {.{.N .         ",
"                                                  . . + O >         . . . .                     & * * O +     > * * * .         ",
"                                                  $ $ # $ ,         X . . .                       # # X #       X X X o         ",
"                                                                                                                                ",
"                                                                                                                                ",
"                                                                                                                                ",
"                                                                                                                                ",
"                                                                                                                                ",
"                                                                                                                                ",
"                                                                                                                                ",
"                                                                                                                                ",
"                                                                                                                                ",
"                                                                                                                                ",
"                                                                                                                                ",
"                                                                                                                                ",
"                                                                                                                                ",
"                                                                                                                                ",
"                                                                                                                                ",
"                                                                                                                                ",
"                                                                                                                                ",
"                                                                                                                                ",
"                                                                                                                                "
};
