/* XPM */
static char *_7400730046d475bff1d26b0fc1475e2VjX4h18CeCGZ8SPJ[] = {
/* columns rows colors chars-per-pixel */
"64 64 207 2 ",
"   c None",
".  c #1F1D25",
"X  c #27262E",
"o  c #2C2B33",
"O  c #302F37",
"+  c #342F38",
"@  c #34333B",
"#  c #37353C",
"$  c #3C3B43",
"%  c #393641",
"&  c #423E45",
"*  c #433B46",
"=  c #444146",
"-  c #4E4445",
";  c #45424B",
":  c #49454C",
">  c #4C494D",
",  c #514B4E",
"<  c #56474B",
"1  c #5A5043",
"2  c #494751",
"3  c #4C4A54",
"4  c #474650",
"5  c #534D53",
"6  c #5B4C54",
"7  c #584D59",
"8  c #565154",
"9  c #5E5054",
"0  c #55525C",
"q  c #5B565B",
"w  c #5E595C",
"e  c #624F57",
"r  c #644E5C",
"t  c #625257",
"y  c #64545A",
"u  c #655B5D",
"i  c #6B5A5E",
"p  c #68555F",
"a  c #72624B",
"s  c #595661",
"d  c #5E5A64",
"f  c #5F5D68",
"g  c #555967",
"h  c #525C71",
"j  c #675761",
"k  c #645C64",
"l  c #6D5D62",
"z  c #625F6A",
"x  c #6E5E6A",
"c  c #6C5663",
"v  c #725D63",
"b  c #765F6A",
"n  c #785F6B",
"m  c #666166",
"M  c #6E6062",
"N  c #64616C",
"B  c #6B666C",
"V  c #736365",
"C  c #746469",
"Z  c #7B646A",
"A  c #766A6C",
"S  c #7C6C6D",
"D  c #7A6467",
"F  c #676571",
"G  c #696673",
"H  c #6D6A74",
"J  c #6D6C7F",
"K  c #7B6671",
"L  c #736B74",
"P  c #7D6C72",
"I  c #726E7C",
"U  c #7E6D79",
"Y  c #746774",
"T  c #7D7274",
"R  c #7E737A",
"E  c #7E797F",
"W  c #75727B",
"Q  c #826B6F",
"!  c #8A6B6A",
"~  c #94706A",
"^  c #846D73",
"/  c #816F7C",
"(  c #847173",
")  c #8C7376",
"_  c #83747D",
"`  c #8E747A",
"'  c #897B7D",
"]  c #92757A",
"[  c #977A7D",
"{  c #99797F",
"}  c #967571",
"|  c #B27C60",
" . c #90804F",
".. c #BFA643",
"X. c #C38E57",
"o. c #CD9E6E",
"O. c #587E98",
"+. c #5B7287",
"@. c #777581",
"#. c #7A7682",
"$. c #7C7A86",
"%. c #7D7B88",
"&. c #677C8D",
"*. c #867582",
"=. c #897984",
"-. c #827F8D",
";. c #8C7E8A",
":. c #5A8AA7",
">. c #4492B8",
",. c #8C8487",
"<. c #84818B",
"1. c #8E828C",
"2. c #878284",
"3. c #92838D",
"4. c #978688",
"5. c #948590",
"6. c #938A92",
"7. c #998C96",
"8. c #9B939B",
"9. c #90959F",
"0. c #AA8B8C",
"q. c #A68387",
"w. c #B38A8C",
"e. c #A7979A",
"r. c #B39493",
"t. c #BC9C9A",
"y. c #BA9896",
"u. c #B7948D",
"i. c #B4A19C",
"p. c #928FA0",
"a. c #9995A2",
"s. c #A49CA4",
"d. c #AC9BA1",
"f. c #B59EA1",
"g. c #9FA5B4",
"h. c #A7A1A8",
"j. c #AAA5AB",
"k. c #ACA8AF",
"l. c #AAA1A6",
"z. c #B2A4A6",
"x. c #B9A9A9",
"c. c #AEAAB1",
"v. c #B7ACB5",
"b. c #BCB4B5",
"n. c #BEB6BB",
"m. c #C39499",
"M. c #D6B195",
"N. c #C5AEAB",
"B. c #CDABA9",
"V. c #CAAFB0",
"C. c #C4B2B6",
"Z. c #C1B5BD",
"A. c #C8B8B8",
"S. c #D3B9B4",
"D. c #D3B1B3",
"F. c #D4A4A7",
"G. c #E1B4AF",
"H. c #E9AEB1",
"J. c #E4B7B3",
"K. c #EDB5B4",
"L. c #E7BCB8",
"P. c #F1B6B7",
"I. c #F3BAB9",
"U. c #ECC991",
"Y. c #F2CF9A",
"T. c #C8C1BE",
"R. c #DDC3BA",
"E. c #E4C4BD",
"W. c #EAC9B9",
"Q. c #F2D2A9",
"!. c #C5BBC4",
"~. c #CCC6C3",
"^. c #D5C8C7",
"/. c #DBD4CF",
"(. c #D7CCD3",
"). c #DBD5D4",
"_. c #DFDADE",
"`. c #DAD4D8",
"'. c #E6CCC5",
"]. c #F4CCC3",
"[. c #ECD5C8",
"{. c #F1D3CA",
"}. c #E5D4D1",
"|. c #E4DCD6",
" X c #EBDBD6",
".X c #E9D7D9",
"XX c #F6DFD5",
"oX c #ECE2DC",
"OX c #E7E1DF",
"+X c #F8E1D4",
"@X c #F5E5DD",
"#X c #FBE6DC",
"$X c #F9E9DE",
"%X c #F3E8DF",
"&X c #E5DDE2",
"*X c #EAE3E7",
"=X c #F3EBE4",
"-X c #FBECE4",
";X c #F1EAEB",
":X c #FBEFE8",
">X c #FEF5EC",
",X c #FAF0E8",
"<X c #F2EEF0",
"1X c #F6F2F2",
"2X c #FFFFFE",
"3X c #FBFAFA",
"4X c #FAF7F5",
/* pixels */
"                                                                                                                                ",
"                                                                                                                                ",
"                                                                                                                                ",
"                                                                                                                                ",
"                                                                                                                                ",
"                                                                                                                                ",
"                                                                                                                                ",
"                                                                                                                                ",
"                                                                                                                                ",
"                                                                                                                                ",
"                                                                                                                                ",
"                                                                                                                                ",
"                                                                                                                                ",
"                                                                                                                                ",
"                                                                                                                                ",
"                                                                                                                                ",
"                                                                    ]                                                           ",
"                                          9 y                   y w.H.P.                                                        ",
"                                        '.u u u y   C C S S S y ^ m.I.P.                                                        ",
"                                        1XM i v M V C C D k V i N.'.K.P.                                                        ",
"                                        1Xl M V V V D V C V M D *X4X XH.                                                        ",
"                                        B D D i S D S S S S Q ( ^.4X=XF.                                                        ",
"                                        D i y u u y D S Q Q ) ] m.XXS.Q                                                         ",
"                                        M t v ) t 9 V i i i D ^ q.;.{ e                                                         ",
"                                          m.W.%XN.y.t.t.B.` l l Z i 6 Q                                                         ",
"                                          x.4.~ %X>XS.! ) r.Q D S D v )                                                         ",
"                                          x.[.X.[.>X3Xo.X.r.0.C D Q V ]                                                         ",
"                                          4.+XQ.$X>X,XU.Y.R.( C V D y )                                                         ",
"                                          Z -X>X>X>X>X,X,X0.] e V t t i                                                         ",
"                                          p ' *X>X>X>X:XS.[ D y y t y k                                                         ",
"                                            * j /.%X[.J.q.u.{ l 9 y y '               - - < 9                                   ",
"                                            * 6 B C D.J.L.C.P V y y y '               - - 9                                     ",
"                                            U !.k.p.Z.A.`.1.d.Z.P l p ^ `.          - -                                         ",
"                                            Y v.p.:._.!.6.(.3X3Xn._ 6 Z ^.          ,                                           ",
"                                          : $.v.@.>.O.+.s.2X3X2X1Xb.j b C.          6                                           ",
"                                            6.`.:.O.h 5 a.|.;X1X1X*Xa.C ^ 4.        i                                           ",
"                                            x..Xg.&.h x !.&X<X<X<X|.j.K Z ]           M                                         ",
"                                          < 7 4.s.6.N U (.4X3X3X&XZ.6.c x n           D C                                       ",
"                                          r p =.z.8.,.3._.<X*X&X&Xv.U 6 K r `         V S A                                     ",
"                                            e.B.G.*.h.x.>X>X,X[.U 1.;.6 C K e.=.]         S T                                   ",
"                                            d.}.J.r.3.b.,X>X,XS.=.8.6.7 j / 3.  =.        S P                                   ",
"                                      q.    ` F.].t.^ ~.>X>X-X7.6.a.s.x j C K     w.        S T                                 ",
"                                              '.W.M.  oX>X>X}.*.5.h.j.5.j c 7.    q.        S T                                 ",
"                                              #X#X+X  >X>X|.=._ =.5.j.j.R v               T T                                   ",
"                                            $X-X-X$X>X>X>X).;.*.;.1.j.j.*.1.h.            ^                                     ",
"                                          L :X,X:Xj.>X>X,Xz.=.=.;.5.s.s.h.j.j.j.        y (                                     ",
"                                          ^.>X>X>XB >X>X).j *./ *.;.s.j.k.k.k.j.j.h.  -                                         ",
"                                          >X4X>X~.,.>X>Xn.5 x U U #.=.;.s.h.h.s.d.s.m                                           ",
"                                          OX>X>Xe.~.>X>XE # @ x U *.6.7.6.s.a.h.s.;.I                                           ",
"                                    > 5 d =X>X,XoX>X4X|.$ 0 3 . 7 I s.c.c.c.c.h.7.s.L X                                         ",
"                              d f m z z z >X4X@X@X>X=X> # o 3 %.0 f @.f H %.2 ; N I @.@ ; =                                     ",
"                            m N f f d g 0 >X>X[.$X>Xi.X + _ e.P %.p.<.; 3 @.@.$.@.%.d $ q 1.R                                   ",
"                          m m m f q 0 3 > >X|.x.:X>X}.b.T.>X>X>Xe.I L d F J N f 3 W 0 m $ k :                                   ",
"                        k w d q 0 5 4 w _ >X^.x.>X=X-.<.~.,X>X>X=X/ $ z p.F N s $ -.%.3 d 0                                     ",
"                          5 > B e.A 4.E.W.W.S.2.= 4 s G I @.v.-X+X].w.#.; ; H <.q 2 W ;     B L E                               ",
"                              =X,X=X=XXX{.r.> $ ; 3 s g d d B E.E.L.K.! O @ % H H ; 0     8 m B L                               ",
"                              =XoX XoX,XoX# $ = 4 2 3 2 ; ; $ = > 5 0 0               > > 8 q w m                               ",
"                                    =Xb.& & $ $ % # + O O O @ @ % $ & ; : : : : : = = = = : > , 8 m V                           ",
"                                        # # # # # # @ O O O O @ # % * & = 1 = = = =           > 8 w u V                         ",
"                                          # # $ & ; > : : a  ...; :                             w w y u                         ",
"                                                                                                  , 8 u                         ",
"                                                                                                    8 >                         ",
"                                                                                                                                ",
"                                                                                                                                "
};
