/* XPM */
static char *_cb51cbc6ca049d1924ba6175ad9a059yCUG7IyziYwePlI4[] = {
/* columns rows colors chars-per-pixel */
"64 64 254 2 ",
"   c #384A17",
".  c #3D551E",
"X  c #3B5B1D",
"o  c #2C4815",
"O  c #3F5C23",
"+  c #3E6122",
"@  c #3E661F",
"#  c #46591C",
"$  c #565D1C",
"%  c #48641D",
"&  c #53691E",
"*  c #55721F",
"=  c #4B5D23",
"-  c #465B25",
";  c #565E28",
":  c #476124",
">  c #4C6323",
",  c #4B6B25",
"<  c #4D652D",
"1  c #4C6A2B",
"2  c #466829",
"3  c #536524",
"4  c #546C26",
"5  c #5B6D25",
"6  c #53642B",
"7  c #5A662B",
"8  c #536C2B",
"9  c #5B6D2C",
"0  c #5E6525",
"q  c #4D7429",
"w  c #547424",
"e  c #5B7426",
"r  c #55732B",
"t  c #5C742C",
"y  c #557A2C",
"u  c #5B7B2D",
"i  c #597A26",
"p  c #4B6A31",
"a  c #546D33",
"s  c #586935",
"d  c #5C7433",
"f  c #557B33",
"g  c #5C7B34",
"h  c #5C743A",
"j  c #5C7C3A",
"k  c #557435",
"l  c #4F7234",
"z  c #626E2D",
"x  c #676B27",
"c  c #63752C",
"v  c #637B2C",
"b  c #6B7D2B",
"n  c #687727",
"m  c #737D2D",
"M  c #79772B",
"N  c #646C33",
"B  c #637433",
"V  c #697433",
"C  c #647B34",
"Z  c #6A7C35",
"A  c #64753A",
"S  c #637B3B",
"D  c #6B7D3B",
"F  c #69753A",
"G  c #737E3B",
"H  c #767A35",
"J  c #6B7E42",
"K  c #657A43",
"L  c #737A43",
"P  c #597144",
"I  c #827D36",
"U  c #827F40",
"Y  c #5D822D",
"T  c #5D8134",
"R  c #5D8336",
"E  c #63832C",
"W  c #6B842D",
"Q  c #698B2D",
"!  c #73872C",
"~  c #76922D",
"^  c #648334",
"/  c #6B8434",
"(  c #668A33",
")  c #6C8B34",
"_  c #64833B",
"`  c #6B843B",
"'  c #658B3C",
"]  c #6C8B3B",
"[  c #738434",
"{  c #7A8336",
"}  c #738C34",
"|  c #7B8B35",
" . c #73853C",
".. c #7B843B",
"X. c #738C3C",
"o. c #7A8C3B",
"O. c #6C9235",
"+. c #6C933C",
"@. c #69943C",
"#. c #749335",
"$. c #7B9336",
"%. c #74933C",
"&. c #7B933C",
"*. c #759A3C",
"=. c #7C9B3C",
"-. c #779935",
";. c #6E922E",
":. c #7CA23D",
">. c #648243",
",. c #6C8443",
"<. c #648B41",
"1. c #6C8B42",
"2. c #6A8749",
"3. c #738443",
"4. c #7A8543",
"5. c #738C43",
"6. c #7A8C43",
"7. c #738C4B",
"8. c #7B8D4B",
"9. c #75844A",
"0. c #6D9343",
"q. c #699643",
"w. c #749343",
"e. c #7B9443",
"r. c #749B43",
"t. c #7C9B44",
"y. c #74934A",
"u. c #7B944A",
"i. c #759A4B",
"p. c #7D9B4B",
"a. c #768C54",
"s. c #7B9452",
"d. c #7D9B53",
"f. c #7E945C",
"g. c #759553",
"h. c #6F8A52",
"j. c #7DA244",
"k. c #7DA24C",
"l. c #78A443",
"z. c #7CA555",
"x. c #828B3B",
"c. c #868B38",
"v. c #83943C",
"b. c #8A943D",
"n. c #839B3E",
"m. c #879938",
"M. c #939C3A",
"N. c #8C8C2F",
"B. c #83A33E",
"V. c #8AA43D",
"C. c #94A73E",
"Z. c #98B13C",
"A. c #828C43",
"S. c #828E4A",
"D. c #878B44",
"F. c #829443",
"G. c #8B9543",
"H. c #839B44",
"J. c #8B9B43",
"K. c #82944B",
"L. c #8A944B",
"P. c #849C4B",
"I. c #8B9C4C",
"U. c #959C4D",
"Y. c #959948",
"T. c #839553",
"R. c #839B52",
"E. c #8B9D53",
"W. c #849E5B",
"Q. c #8B9D5B",
"!. c #879558",
"~. c #949955",
"^. c #89874C",
"/. c #A39E4D",
"(. c #83A244",
"). c #8BA345",
"_. c #83A944",
"`. c #8BAB45",
"'. c #84A24B",
"]. c #8BA34B",
"[. c #8CAB4D",
"{. c #84AA4C",
"}. c #93A44B",
"|. c #93AB4B",
" X c #98A747",
".X c #8CB34B",
"XX c #96B34B",
"oX c #84A353",
"OX c #8BA353",
"+X c #85AB53",
"@X c #8CAB54",
"#X c #84A35B",
"$X c #8CA45B",
"%X c #8CAA5A",
"&X c #86AC5B",
"*X c #93A454",
"=X c #9CA355",
"-X c #93AB53",
";X c #9BAC54",
":X c #94A65A",
">X c #94AC5B",
",X c #9BAD5A",
"<X c #9AA45D",
"1X c #8CB25A",
"2X c #8BB255",
"3X c #93B354",
"4X c #99B454",
"5X c #94B35B",
"6X c #9BB25B",
"7X c #9CBA5B",
"8X c #9ABA56",
"9X c #A6AA47",
"0X c #A4AA5A",
"qX c #A4B454",
"wX c #A2B35C",
"eX c #A7B859",
"rX c #ACB550",
"tX c #899C61",
"yX c #939D62",
"uX c #8CA763",
"iX c #94AB62",
"pX c #9BAC64",
"aX c #96A868",
"sX c #89B261",
"dX c #95B263",
"fX c #9BB564",
"gX c #9CB36B",
"hX c #9DBA6B",
"jX c #98B965",
"kX c #9DB474",
"lX c #A2AE65",
"zX c #A3B563",
"xX c #A3BC63",
"cX c #A4BA6C",
"vX c #A8B967",
"bX c #ACBC74",
"nX c #ABBA76",
"mX c #B6BD73",
"MX c #B6B969",
"NX c #A19E66",
"BX c #C1AF7E",
"VX c #A3C45C",
"CX c #9DC366",
"ZX c #9DC372",
"AX c #A8C468",
"SX c #A8C377",
"DX c #B3C372",
"FX c #B6CA73",
"GX c #B9C66D",
"HX c #9EC15C",
"JX c #C6CE71",
"KX c #A2AE85",
"LX c #B3C885",
"PX c #C4CF82",
/* pixels */
"{.1XF.U.X.H.&.2.J e.oX-X).! Q K.o.) 5.Q.E.u.1 {.u.-.G.T.` r 0.%Xm.` p.R t.OXt.@X] Q.t {.'.XX#.[.5Xw.0.) |.) %.}  X/ ].] :X/ vXu.",
"P.4.| :XV ].<X>X-.8.3.ZX-.) { ! 5 p.*.%.t.r.#.j._ k P.Y K + g.xXp.F.I. .` j.u.8.#.[.hXpX} J.X.r.jX&Xt.p.'.s Z Y.6X$.zX` %XwXe...",
"Y.%.4X6 }.AXMXH.` &.A d.;.[.&.i X.fX} p.@X#.].Z { 5.+.'.t.(.d *.% J  .r.9 6.U.` &.t.5Xd.t.%Xk X.g.kXA , i.( @X{ &.B.oX6./ D +X/.",
"L.;XzX0X%.H.M.qX1.P.sXt.3 [ [ bX5XCXT.7.pX` $ n e.=.xXz  .8.pXX.Z Z R $Xt.7X}.[.@X=XL.&.z dX2.3X( , ] y e.5X(.n <X} ].k.r.E.O.[ ",
"r  .W.%.5.zXqX9XD.u.-XXXH.) $X$X' I.> a # 1.oXW { oX3.e.5X5.[.E < 9 E iX| E.AXU.J.XXL.%.) : } _ t k.Q.K.3X:.wXaX&.% R._ j.cXR.@X",
"AXj 4 J xXm.b.9XJXMX*X-Xr.G E.@X+.- 0.i.X ' oX%.` q u.>Xk.K / # C ` ] k OX9 aXG.O.XXJ.t p.4X_ ] L.&X0.u..X=.}.t.| t F %.%Xp.7XjX",
"u.f ,.l. X*Xn.$  XF e.,X).lXR.` Z 2.P.uX<.j ^ ^ q y dXk P.w.aX'.oXcXR.d.s.t.e.D u.@X, J.SX#X` ) >XX.o.u.^ 5XxXP.6 ) #.) j.v.(.<.",
"; < AXn qXP.m c.%.V :X| 2X5.6Xo.@Xq.nXp.5.u.h #.> X./ K.>X] 9.2.S ` >.%Xp.P.v ,.>X7XZ %X}.E.O.].` OX6.X.1 A k w.P.t ,X*.%.@XP.2.",
"6X] H.I.0XA. X,XwXB [ eX).o.9 w d (.w.%.y.tXy.2.#X).(.1 r @XP.u.] 1X: f 0.t $XR ].:.%XP.z.v.-XF.g AX:XP.E.].] (.u.v |.` C U.0.J ",
"h _ '.o.I.%.I.w.$XI.;XL.N  .h 5X+.S n.u 9.>., 1 8.OXe.%XoXd._.,.< >X5.5.hX' Z ] qXJXA ! P.'.iX].5.o.7.R #XOX/ (.Z n.z ].e.I.e.8 ",
"SX_ Y.mXo.OXE I.e .X(.D.x iX&.( {.S oX` a., 0.t._ $X'.S >.KX] s.9 %Xf.W.#Xp.6.p.o.H.t o.7.OX] iXP.i.X.y.R.lXF.} %.t.| ,XfX-Xo.8.",
"cX>X-X%.OXeX`.#.&.X.qXOX=X6.VXi ] *.DX] 2.1 0.^ gXoX$XC ).p f.r.s.w.%XK Z >X:X[.O.H.F.@X-.OXR.].8.=.%.OXo.=X .[ 6.3 6.n e.m.)...",
"i.A i.H.J.(.p.=.e.K.J.D S 6Xt.v E ` 6Xt 1.#Xl z.#X6 +X- r.j 1.AXvXBXC ,.[.-XO.> s.V *X]./ J.qX=X/ e lX].OX{ z I.pXS.{ MX[.) :X].",
"_ 0.) @X[ _ g ` c 1 zX/ C '.oXR.} T.] C OXtX>Xi.i.< +Xg u.y.Z %XT.b i wX7X; ` g 3 $.[.o.c { 2XH.u.qX-XG.].*Xw.D.P.6.c 9X/ , / ` ",
"+XC w.4XW 6.X.#X> u.B %.} 3.>X_.g 1.AX^ a u.oX1.#Xp.0.J d.].= (.: gX'.u.|.D.] w.%.e.V ;Xc.N.Y.OXr.-XxXo.zXzX`./.x.C H.vX- ^ k ..",
"2.&XAXB.7.j H.t.f k.D ` *XnXiXv.t.| +.J.F 5.1.T.s.d.dXJ &.5 [.mX4Xm I.6.A R.w.(.#.3 } 2X$ '.s fXr / |.} A.$.b.V.eXG.D.>Xy.t.'.2 ",
"g.%X_.+.(.9 5 %.k w.- =. .` vXd vX3.< j &.E.k S s.h.W.9.,X6X|.e.u.o...N u 3.l.` ] X.~ 5X# q c + o.[ H.[  X].*XrX8XJ.( b.Z >Xy.k ",
"d (.0.j ,XL.y.` T / .X=.]. X(.[.VX` B Z 1 ] y S 3.5X$X,.8.r.^ v -.[ D 5.E.t F.] Y 0XwXn.X.t 6.` G x.&.-.}.6X:XDX@X) B.FXuXl.t / ",
"F.^  .) t.3.l._ L.w.) o.t.H 8.y.H SX^ J.&.u.5.5.#XT.%XP.r B 3.C ' m.H  .iX] 2.k.w.t.jX`./ I.:Xt.&.# [ 8 `.} &.oX .' c K./ ].` F.",
"h o.^ l.w _ p.:.8X| |.wXK.m.:X) @.%.;.c R.` 1.r.>._ u.7.s.}.y. .^ eXL.X.,X7.6.dX^ [ L.o.7.J. .t.H.Z >Xw.f *.u.# !.d $Xi.a J.0Xe.",
"%Xc %X, c 4X%.r DXo.t |.o.6.$.OX# #.0X*XbXw.d  .R.aXw.9.7.@.v W ~.7.A :Xt Z p.F.C M.@X2.[.G.g pX@X,XY H.vXu Z @.d.i.9 C l.k._.t.",
"qXOXK.k B ] :.n. X!.J.n.=X6.AXfX5. .7.] +.k dXjX3 y.aXJ y - ' E I.#XOX..5.6.} * %.S E.] <XA._ ..I.4.K.I.3XeX[.I.z.O.+.r.+Xo.$XGX",
"]  .].] y.CXf Z |.V.V.:.X.`.V +Xz.a.3.t.p.9.+.2.$XP.C u._ ) w.S p.6.T.$XK.N :XW c 7.3.Z W pXo.OX` [.-XAXfXg (.jXgXh % 4.dXX.u.~.",
"H.t ].p.OX9.).qXv V.-Xr n.c e.d ;XR.X.,Xa.Q.] l.i 2.@.g l q.S 2.u p./ K (.d %XT.` a `. ._ < XXH.v C J.>X-XZ '.,.f 3Xe.S +Xt 0.3X",
"` ].q hXSX_.XX]. X}.B./ E.#X> r X.6.L cXj xXe.T i.# r O y.S g O cX$X~.&X$XK.I.'._ y.6 u.` 1.7.X.u.8X,XG.` +.e.j vXm.4.g Q w r.[ ",
"$XG.` ] c E.[ =.v.t.R.E.m E x.t.J.cXaX!.d O.5.1.7.' u.g L.w.j u.' uXS.h gX2.xX'.` D _ [.^ -X_ gX%.}.AXH.t.-X:X&X'.B ,.,XoX0.oXX.",
").6.c t.g 8X5.} , o.X.n.=.@Xt.u.8XJ.=XJ ] u.!.a.$X{.w.W.y.h.#XgX] ,.C bXF.E t.7X7 t L.XX%.1X@XZ e.`.p.-.x.5 d.e j.,.-XI.V ' w.h ",
"&.I.vX+.;Xu.r J.w.}.t.+.@Xe.fX' =X4.mXG.L.aX# : ,.f.i r C ' 0.w.AXh.p.J 6.lXu Z 1.8 %.Z |.0Xi > J.} R.qX .) b 8 ,X3X,X^ Y %.eX` ",
"i.C D MX'.u.2Xp.lXH.:Xi 9 d iXE.v.Y.5 x.V D.$XK e.$XP gX8 8 h 1X_ S 1.- 1.eX0XG.D o.X.E.:X9.[ R.u.X.[...V m }  X[.X./ m , u k @.",
"U.` &.} =.{.=./ n.C.+XF.>XK.` t -Xp.o.e.d X.h k 7.hX%X .,.cX5.R.j 1.< a +.A qX;X:X0 A ,.$X5.g X.a.e.u e -.qXv.].c.9XZ D Z Z ) HX",
"6.c.jXt.5.E.^ } x.].N.- AXH.S w.g o Z ..iXuXdXgXuX5.L.' r 0.e.AX2.R.i.C h A.7XNXL H d h Z 1.d.e.5.: _ H.X.! I.V.XX`.s ` d.B w.@X",
"F.g #  .l t E V.b c.C K d w.].g w.^ s / >X5.xX3.hXiXh c : ].g p.uXh <.xXp._ H GX7 H OX1.vX%XoXW.1.] / &.e.| Y.x.I.Z B 4.q.:Xu.) ",
"r 2 E.g.j &.OXi.;X<...sX0XFX*.p.' _ E.5.y.f ].,.p.>X` ] j %.X.e.h O.>.>.R.!.dXfXU  .>XZ &.A p.1 2.h f 0.` F.E ) n } :X%X) D . < ",
"7._ ` <.g d.g / y.1.%.5.Y._ k vXu.K y.C E.w._ J 8.*X7. .k _ R $.+.& %X@ u j.iXvXY.nX3.R.d ] o.l w.sX<.iXJ.V.}.=.bXiX/.Z W W O.8 ",
"7Xv _.2 < >.).8 2 j ^ X.a _.' ,X% h pX@Xw.o.}.u A F.W < SX: AX(.2.%X-.; n.8.a.L.<XgXX Z g B q.i.ZX( o y.( n.v.e.c OX0Xo.c. X9 w.",
"_ u.1.u.k._ > O.8 0.S # 5.p.] / i w.1.R.e.] #.H.o.e.j.eXaXB 3 h e._ &.K.N g.#XE.N u.- } v w.dX6.FXy.g %X, !.3 P.pXGXb.M =X:X7 &.",
"L.e.q.9 : .X6Xr.*.6X'.5X' # OXAX@XP.3X@X( _ t X.$ -XF wXv.d w.` iX!.s fXw.2 s.d 8.h ,.t s C 6.kXR.q }.2X@Xw.] o.} N.{  .;.K.7.AX",
"e.p._ F.vX4 . C ] t u.t.d.r.'.s `.k.q OXW. .% %  .B DX0X{ B 5.< 5 _ 6 h.aX>.S d a., | 7 6 ` H.h.Q.&.E X.C r.A ,.{ ).[ F.H.] } |.",
"%.;X#.i   s.q X.p.Y.H.Y ( p &.^ o > g r >.] <._ W ).M M H 6.^ +XZ   6.w.R.5.  m =.` ,.t 5.i.gXK.wXg , $.) y q j.;X) >.,.^ u.e.%.",
"y.6Xd p.l.) J w./ V } 4Xi y  .,./ 9 X.%.b ` ' { J 4 v.V Z O.H < g %XS.!.s s.4.U.*XlXp.5.2.y.~.t o.'.o.A C oX_.AXK.w.0 P.K.C P.o.",
"e.7XH.(.l.' ).T 3 / V 0 :.Q ^ 9 ).f ^ OX' W %.c %.3XC B _ {.t . 1.- o.7.7.u 7.d aXSXe.*X'.w.=Xe. .@./ `.# v r 5X( '.b 7 i ,.^ @X",
"C v.OX0Xt.wX5.e.k.H.J.|.C e w.+Xv.:.S <.2.} r p.i.Z e.1.` t y.-XY p.[.!.S.%.1 oX1 4.& 0X1.I.@XF.|.H.^ o.& y * } vXb.) [ p.E OXG.",
"XX# u.1.5.5 G.c d.J.n.>XY 8 CX9 v _ r u.E ` i +Xr v t v Z ] J V  .] > H >X:XK.g E t X.J.=.U.2.` R.X.U.W X.O.) `.#.E.^ I./ H r n ",
"oXn g D | ] %.~ / 4 :X*X=X8X.XCXT.C &.w.X.%X#X2 [.x.D +. .k.)./ < C ' cX}. .t ..: n.7 -.c.D.G.9 ` _.d &.C.C.t.@XP.~.^ } P./ v 3 ",
"9.o.6..X' q.&.w.H.-X&.B AXA.) _ w.1.) ' w._.5.>Xi.j X.y.e.` . _ 1 1.] K.LXL.;XFXG 6 c ! x ` 3X/ ! J.v.} Y.j .X*.,.d., s.u.f J =.",
"7.oXe.&.XX].R Z v.e.{.| F.o.} -X` D e.-.O.>Xt.< u o.^._ / 5.7.q ,.iX2.@X,.Z z 9 > X. Xo.0 wXe.e.&.b u.H.{.'.- fX5 w.G.F /.w.>.t.",
"d B y | $  XE C [ }.L.d b F.=.7.H.>XfXP.dX5.g.t.5X&.t.#.y.R.ZX_ >Xz.h LX' V r g.y.w.y.c > s iXp.6.y.5.w.iX^ -X}.%., ) H.`.1.g +.",
"t._ m.Q D.c o.w.b K.%.OXH 9 L.6 =.X.Z :Xa <.- r = a p.hXOX:X( R.C V ` DXe.oXM.{ t 3XH./ t x.= y.5.B 3X%X>.q t.f.yXw.b E ..=X7 ' ",
"V.*XXXJ.v.| ..[ ) X.- s uXe.1.g %X5.u.B.g ` h y.K s.S 7 r U.5X:X= 6 K <X3 B C SX, ).7 e.=.].=.r.XX5.P.Y.c d.# eXoXF.E =.`.4.,.J.",
"(.e.x b.o.Q.> Y } XX] +./ k k.' R &.B.AXV r @.p h D g kX5Xy.lXd fX` u.2.r ] : ~.5X'.u.xX:XFXA t A ( ] 4X` d w K.<.p.e.9 % 9 e._ ",
"t D.~.6.6 ).W Z o.}.@X/ e < / / C 1 H.u.(.7., ' w (.uXg }.4 ,XP.nXE.] VXJ ) N OXo.OX-XO.].I.f.( 5XJ.x.e.}.X.` 6.R.t / k.c h X.] ",
">.Y.S.e.e.{ P.V i &.rXqX_ _ i.+.< c ` r h +.R H.@Xn.;XH.AX5.-XH.s s # *X; C p.5.r W 1XLX .3.v.6 / P.>.v  X@XOX5XG.y.{._ R h c H.",
"_ ( a :X{ fX`.{ `.4 ' ` h.:.-Xw.t i t V.L.o.>XX.} Y.i e b  X! 4XY.].#.-X&.s.1.DXoX4X(.n.8 OXpX) P.e.T.u.L.X.t C 5X/ X.P.+.A ) 1X",
"&.$.G 9 _ o.D ] ).v W iXk.{.'.( R Y d v u 9.q X ` n } H.@X(.N.rX[ qX` }.L.!.O.8.7 . Z W 7.cXe.t.t.7 ].u.] b (.C u.O.gXOX1 ,XR R ",
"c } 4.( F.I.v u P.3.]..XhX2 J.R.=.p.3 / 1.S ) ) w Q X.e./ & Z. Xc.s | o.3.L.y.#.g V.c / H.yX8.%.:X_ >Xu v.0X}.).{ _ G [ &.9 Q.nX",
"I.&.[ ,X) t ( 2 g -X8.lXzXX.V #X' 9.^ E p.] +.jXjX(.4.r j.$..XY.U.S.v.`.bXz 9Xx.P. Xe.t.:XDXg C >._ ' o.{ { +.-X:.{ ! %.[ 8.D.` ",
"*X| b.C E.e.t pX] $XZ *.P.e. .} ( aX- d H.S v.%X7.J.0.$.6.H.|.c.D.b.|.=XF.D K.lX4 @Xz & *X} K 3.w.F.6.] 3X .C | m.n v.) ( q n.|.",
"{ &.D t.e. .d.c E.3.g T.7.&. X6.=.z.R &X&X5.<.L Z ` c H / G L.D. .b.0XV  .U.S.yX9.*XG.t.e.e.1.` 3 X.u %.dXc.:.% C.{ b m } ;.t.R.",
"m...( 6X<.^ -X[.<.W ` # H.&.*.- r wXv.'.oX]. XDXn p.C ~ ) ) ,.5. .dX!.5.s.G.E.Y.K.} v 5X%.5.J v o.t.@X{.U.) S  .| e m U.K.b.H.d ",
"| X.9 y.I.*XZ r (.e ].E (.9 E # / PX].x.DXq.-X/ dX1.E H.g &X>.1.D.(.J.L.( e T...t d.&.(.} C e.%X7._.p.) C e.&. .) ` o.I v.< ] / ",
"e.C j g Z T.rXv.3.1.c *.& '.N fX_ FX8X].<X0XbX~.t F.J.K.u.OXr.OXqXH.J.%._ e.! 4.6.#._ n ..,Xw.( h _ u t.(.=.E =XC o.Z G.%.p.:X^ ",
"J.%.iXt.OX#XS e.qXA./ 4 >.zXd vXI.G.9 Z H Z C E w.H.-X1 l y 3Xi.J L.< L.3.P.H.K.w.K.F.2X=XE E +. .T J.{ { # `.e.d v X.- J %. .} ",
"7XP.B H.oXO.J v a I.5.e.P.=.qX;XaXw.-X^ F.3.^ X.t H.d W.kX) _ j < o.8 ].w.K.J.I.k 6X/ ].J.r.T > oX~.v.].Z ] [ Z R.% u._ X.t.9 e.",
"w.K T n 8 K = t g 5.) ` @XnX5.C n.R.o.h ' OX7X&.*.zXV dXnXR d.q.o.) C e.VXr ..D o.,.5.V F.=.Z ( @X#.P.J.} ^ p.`._ / '.s.6.I./ B "
};
