/* XPM */
static char *fa27514e2da849ba866e5706a7cafc92d4lkcnoLOIsi5NVV[] = {
/* columns rows colors chars-per-pixel */
"64 64 221 2 ",
"   c None",
".  c #1F1D25",
"X  c #27242D",
"o  c #2E2C34",
"O  c #282730",
"+  c #302F37",
"@  c #342F38",
"#  c #34333B",
"$  c #39373F",
"%  c #36343B",
"&  c #383640",
"*  c #3D3B43",
"=  c #413E46",
"-  c #413F48",
";  c #443743",
":  c #444146",
">  c #4D4344",
",  c #45434B",
"<  c #49464C",
"1  c #4C494E",
"2  c #53454C",
"3  c #534A4D",
"4  c #564849",
"5  c #494751",
"6  c #4D4B53",
"7  c #4B4A54",
"8  c #524D53",
"9  c #5B4C54",
"0  c #5C4E5A",
"q  c #524B56",
"w  c #565154",
"e  c #5C5154",
"r  c #55525B",
"t  c #5B555B",
"y  c #5E595B",
"u  c #5A5043",
"i  c #634E58",
"p  c #625356",
"a  c #64545A",
"s  c #69535C",
"d  c #655B5C",
"f  c #6B5A5E",
"g  c #72624B",
"h  c #595661",
"j  c #5E5A64",
"k  c #5A5B68",
"l  c #4C5C72",
"z  c #6C5662",
"x  c #645C64",
"c  c #6D5D62",
"v  c #625E6A",
"b  c #6E5E6A",
"n  c #675761",
"m  c #725C64",
"M  c #745E6A",
"N  c #785F6B",
"B  c #5D6370",
"V  c #6E6062",
"C  c #65616B",
"Z  c #6A656C",
"A  c #666166",
"S  c #736366",
"D  c #7A6367",
"F  c #756469",
"G  c #7A656A",
"H  c #756A6D",
"J  c #7B6C6D",
"K  c #6B6674",
"L  c #6D6A74",
"P  c #6A6876",
"I  c #736B74",
"U  c #7D6C73",
"Y  c #736E7C",
"T  c #7D6D7A",
"R  c #786672",
"E  c #74727D",
"W  c #7D747B",
"Q  c #7B7479",
"!  c #917E50",
"~  c #826B6E",
"^  c #89696B",
"/  c #836D73",
"(  c #816F7C",
")  c #886F71",
"_  c #837173",
"`  c #8B7275",
"'  c #83737D",
"]  c #8C757A",
"[  c #897B7D",
"{  c #92757A",
"}  c #977A7D",
"|  c #997A7F",
" . c #967571",
".. c #94706A",
"X. c #B27C60",
"o. c #90804F",
"O. c #BFA643",
"+. c #C38E57",
"@. c #CD9E6E",
"#. c #476884",
"$. c #587E98",
"%. c #52728A",
"&. c #767581",
"*. c #7B7681",
"=. c #7C7986",
"-. c #7D7B88",
";. c #677C8D",
":. c #857481",
">. c #8A7984",
",. c #837F8C",
"<. c #8C7D89",
"1. c #877783",
"2. c #9F7E84",
"3. c #50819E",
"4. c #5A8AA7",
"5. c #428EB3",
"6. c #84818B",
"7. c #8D828B",
"8. c #898385",
"9. c #92848D",
"0. c #99858B",
"q. c #998687",
"w. c #878794",
"e. c #948690",
"r. c #948A92",
"t. c #9D8C93",
"y. c #958E9B",
"u. c #9C949B",
"i. c #979297",
"p. c #A58485",
"a. c #A8858A",
"s. c #B38A8C",
"d. c #A7979A",
"f. c #B39493",
"g. c #BC9C9A",
"h. c #BA9998",
"j. c #B7948D",
"k. c #B4A19C",
"l. c #928FA0",
"z. c #9B98A5",
"x. c #A49DA4",
"c. c #AB9CA2",
"v. c #A697A1",
"b. c #B59EA1",
"n. c #9FA5B4",
"m. c #A7A1A8",
"M. c #AAA5AB",
"N. c #ABA8AE",
"B. c #A9A2A6",
"V. c #B3A4A4",
"C. c #B8A7A9",
"Z. c #AEAAB1",
"A. c #B6ADB3",
"S. c #BAACB6",
"D. c #BBAFBB",
"F. c #BCB4B5",
"G. c #BBB4B7",
"H. c #C39499",
"J. c #D6B195",
"K. c #D49DA2",
"L. c #C8ACA9",
"P. c #D8A5A8",
"I. c #CAAFB0",
"U. c #C5B6B9",
"Y. c #D3B9B4",
"T. c #D3B1B3",
"R. c #E4B9AA",
"E. c #E7AEB2",
"W. c #EDB5B4",
"Q. c #E6BAB6",
"!. c #F2B7B7",
"~. c #EFCC96",
"^. c #C8C1BE",
"/. c #DCC2B9",
"(. c #E4C4BD",
"). c #E9C8B8",
"_. c #F2D2A9",
"`. c #BEBAC5",
"'. c #C6BBC4",
"]. c #CCC5C4",
"[. c #D2CBCB",
"{. c #D8C8C7",
"}. c #DAD3CF",
"|. c #D8CDD4",
" X c #DBD4D4",
".X c #DCD6DA",
"XX c #E4CDCA",
"oX c #E9CAC3",
"OX c #F4CCC3",
"+X c #ECD4CD",
"@X c #EAD7C4",
"#X c #F1D3CA",
"$X c #E4DCD6",
"%X c #E9D8D6",
"&X c #F2DFD7",
"*X c #FBDED4",
"=X c #ECE3DC",
"-X c #E7E1DF",
";X c #F9E1D4",
":X c #F4E5DC",
">X c #FBE6DC",
",X c #FAE9DE",
"<X c #F3E8DF",
"1X c #E5DDE2",
"2X c #E8DFE2",
"3X c #EAE2E6",
"4X c #EBE7E9",
"5X c #F4EBE4",
"6X c #FBEDE4",
"7X c #F1EAEB",
"8X c #FBEFE8",
"9X c #FCF0E7",
"0X c #FDF2E9",
"qX c #FFF6ED",
"wX c #FEF5EC",
"eX c #F7F0E8",
"rX c #F2EEF0",
"tX c #F6F3F3",
"yX c #F9F5F4",
"uX c #FDFCFC",
"iX c #FBF9F7",
/* pixels */
"                                                                                                                                ",
"                                          4                               {                                                     ",
"                                          4 p                           ^ K.P.                                                  ",
"                                          e e a                       s s.E.!.                                                  ",
"                                        oXd d f f p   S H H J J J s d ~ H.!.!.                                                  ",
"                                        rXU V f V V S S S S F f S f c L.XXW.!.                                                  ",
"                                        tXi.V f S S S F G S F S V S J -XyX%XE.                                                  ",
"                                         XJ S S V S S F S J J S S J ] 7XuXtXE.                                                  ",
"                                        F F G S V G D G J ~ J ~ _ _ ` {.iX7XP.                                                  ",
"                                        V c f p f f d V S ~ ~ ~ ` { | k.&XY.N                                                   ",
"                                        V d p m ` e p f S f f f G ) p.p.a.| i                                                   ",
"                                          F ~ h.L.D D { ^ ~ V _ f p f S D 2 s                                                   ",
"                                          _ H.%X:XL.f.H.h.h.L.{ f f f G f 9 ~                                                   ",
"                                          U F.o...<XqX9XY... .f.~ G S H D V ]                                                   ",
"                                          9 C.@X+.@XqXqXiX@.X.j.f.S D D ~ m  .                                                  ",
"                                          9 q.;X_.,XqXqX0X~.~./._ S S S G d _                                                   ",
"                                          f 0.,X,X9XqXwX6X>X;XL.J S d S s 9 f                                                   ",
"                                          c F 8XwXqXqXqX0X0X0Xa.{ i V V e p f                                                   ",
"                                            s 1.=XwXqXyXqX6XY.} G p S s p p c                                                   ",
"                                              ; n }.5X{.#XQ.p.j.| V p 0 a p [                   > > 4 p                         ",
"                                              ; 0 b Z S.T.Q.Q.U.U S b p s e [                 > > 4 9                           ",
"                                              0 i.:.v.'.S.Z.tXU.V N.T n b a U 3X              > > >                             ",
"                                              Q '.N.l.S.U.U.|.7.m.G.t.U c s U  X            > > >                               ",
"                                              I S.l.4.n..X'.e. XuXuXiXG.' 9 J [.            4 4                                 ",
"                                            < W D.&.5.$.$.%.c.uXuXuXuXtXG.n M U.            3 3                                 ",
"                                            9 T `.%.5.#.#.B c.2XyXuXuXuXrX>.m 0.[.          s e                                 ",
"                                              e..X4.$.l k q u.1X7XtXiXtX3Xv.S / 0.          c d                                 ",
"                                              Z.1Xn.;.%.l b '.3X7X7X3XrX$XM.R N {             V S                               ",
"                                            2 9 <.b.r.w.B Q |.tXiXuXiX1X`.e.z c M ]           H S S                             ",
"                                            0 s 2.b.u.r.8.0..XrX4X1X|.3XA.T 9 R s M '           S J J                           ",
"                                            b >.2.h.i.u.d.q.XXXX{.|.].c.1.T 2 ( m 0 R {           J J J                         ",
"                                              d.I.E.' r.m.Z.wXwX6X+X:.( 7.<.9 N U M u.} {           J J                         ",
"                                              d.+XQ.f.0.7.F.qXqX8XT.T 1.u.e.0 n ( z 9.  2.          J /                         ",
"                                      a.      ] L.OXh.p.~ ].qXqX0Xt.T e.v.z.x n N s R     2.          J Q                       ",
"                                                (.).J.    =XqXqX%X:.:.e.m.N.e.n z z t.    a.          J U                       ",
"                                                *X).R.    wXqX9XC.:.:.>.u.N.N.*.c M c.              J J                         ",
"                                                >X>X*X    qXqX=X:.:.:.1.9.M.Z.W b M                 J _                         ",
"                                              6X6X6X>X  0XqXqX X<.1.1.<.7.M.N.' 7.x.x.              U                           ",
"                                            H 0XwX0XV.7.0XqXeXV.>.>.<.<.9.x.x.x.m.M.N.M.          d _                           ",
"                                          6 r.0XwXqXZ B.qXqX9X>.:.:.' :.u.m.x.x.x.N.Z.Z.Z.      > 3                             ",
"                                            [.qXqX0XZ =XqXqX XA :.:.T :.<.x.m.N.N.Z.Z.M.M.x.  > 4                               ",
"                                            wXqXqX^.8.qXqXqXG.6 z T T T *.1.e.x.m.x.m.x.x.x.Z 9                                 ",
"                                          y -XwXwXc.^.qXqXqXQ $ @ M R :.:.9.t.r.z.Z.x.x.B.<.Y q                                 ",
"                                    5 r k W 5XwX9X=XwXqXqX-X: r 7 . X q T x.Z.Z.Z.A.Z.x.r.z.I + O                               ",
"                                < 7 k K P <.eXqX0X=XwXwXqXx.1 # X O - q * &.y.,.&.E C t Z h x 5 * :                             ",
"                            8 j v v v k v u.qXqX:X:XwXwX5X5 & O 7 =.&.r k &.v K -.6.7 , C Y &.&.% , ,                           ",
"                          A C C v k k t r A.qXwX+X,XqXwXk.X # Q d.~ * =.l.,.- 7 &.&.&.=.&.=.j L * t 7.Q                         ",
"                        x A A v x t r 6 1 }.qX$Xg.8XqX5X}.F.].wXyX8X}.d.&.P v K Y , K k q E r v C * n <                         ",
"                      x y x y t r 6 1 y Q eXqX[.C.wX5XF.-.6.].0XqXqXqX6X_ * B l.C , C t ; 4.-.- 6 k r                           ",
"                      t t r w 6 1 , & 8.@X:X5X@X:X$XZ , q k E A.0XqXqX6XV.+ L w.&.k E =.> y.E : , t                             ",
"                        8 1 1 Z d.H q.oXOX).).Y.8.- , 6 h K Y Y A.6X,X*XOXs.W , 5 7 K 6.a 1 E K ,     Z Q Q                     ",
"                              5XeX5X,X&X#XoXf.< * 5 7 r h k k k L (./.Q.).W.^ + # # % I L < w       w x Z I                     ",
"                              5X=X%X=XeX&XQ * * - 5 5 7 7 7 1 , : , , , 6 r r                   1 1 w t y A H                   ",
"                                +X&X5X=XC * * * * - - * & # # # $ * - , , 1 6 8 6 6 6 6 1 1 , : , 1 1 3 w y A H                 ",
"                                    5XF.= $ * * * & # # # + + + # # $ & = - : < < 1 1 < < : : : : : < 1 1 w y d S               ",
"                                        $ # # % & # # # # + + + + + # $ $ * * = u : : : : :             1 w e d d H             ",
"                                          # % $ ; = < < 1 < < g o.O.o., <                                 y y y y d             ",
"                                                                                                              3 w y             ",
"                                                                                                                1 w             ",
"                                                                                                                3 3             ",
"                                                                                                                                ",
"                                                                                                                                ",
"                                                                                                                                ",
"                                                                                                                                "
};
