/* XPM */
static char *_6d0caae1e484816fcff3115ae7ead26Pd5q7j0TPd0T9BgR[] = {
/* columns rows colors chars-per-pixel */
"64 64 156 2 ",
"   c None",
".  c #050501",
"X  c #090603",
"o  c #060A01",
"O  c #0B0C03",
"+  c #140E06",
"@  c #0C1302",
"#  c #0E1902",
"$  c #131305",
"%  c #1A1207",
"&  c #121D03",
"*  c #191B06",
"=  c #161108",
"-  c #1B1409",
";  c #1A1C08",
":  c #21190B",
">  c #142303",
",  c #1B2505",
"<  c #172903",
"1  c #1A2C04",
"2  c #1D2108",
"3  c #1E2808",
"4  c #1D3304",
"5  c #1F3804",
"6  c #212409",
"7  c #252B09",
"8  c #213606",
"9  c #223C05",
"0  c #253508",
"q  c #29330A",
"w  c #273908",
"e  c #283B09",
"r  c #264306",
"t  c #284606",
"y  c #2A4C06",
"u  c #274308",
"i  c #2B4408",
"p  c #2D4D08",
"a  c #304B08",
"s  c #2E5207",
"d  c #2E5208",
"f  c #305607",
"g  c #325B07",
"h  c #315508",
"j  c #345C08",
"k  c #3C5F0B",
"l  c #366307",
"z  c #386507",
"x  c #3A6A07",
"c  c #376108",
"v  c #386408",
"b  c #396409",
"n  c #396509",
"m  c #386608",
"M  c #386708",
"N  c #3A6609",
"B  c #3A6709",
"V  c #3A660A",
"C  c #3A670A",
"Z  c #3A6409",
"A  c #396908",
"S  c #3A6808",
"D  c #3A6908",
"F  c #3B6908",
"G  c #3A6809",
"H  c #3A6A08",
"J  c #3B6A08",
"K  c #3B6B08",
"L  c #3B680A",
"P  c #3C6908",
"I  c #3D6909",
"U  c #3C6B08",
"Y  c #3D6B09",
"T  c #3C690B",
"R  c #3E6B0A",
"E  c #3E6B0B",
"W  c #3D6C09",
"Q  c #3D6F08",
"!  c #3D6D0B",
"~  c #3E6F0A",
"^  c #3C6B09",
"/  c #3F7607",
"(  c #3C7008",
")  c #3E7009",
"_  c #3F7109",
"`  c #3F7109",
"'  c #42660C",
"]  c #426B0B",
"[  c #406D09",
"{  c #426D0B",
"}  c #41710A",
"|  c #40720A",
" . c #40730A",
".. c #42720B",
"X. c #447209",
"o. c #44700B",
"O. c #46700B",
"+. c #407509",
"@. c #417609",
"#. c #417709",
"$. c #42740A",
"%. c #42750A",
"&. c #43770A",
"*. c #42700C",
"=. c #47730C",
"-. c #47770C",
";. c #42740A",
":. c #4C760D",
">. c #437809",
",. c #437909",
"<. c #477E0A",
"1. c #477F0B",
"2. c #457B0A",
"3. c #497F0D",
"4. c #4D7E0D",
"5. c #4F7E0C",
"6. c #497C0D",
"7. c #517D0D",
"8. c #527E0E",
"9. c #488707",
"0. c #46800A",
"q. c #488408",
"w. c #4A870B",
"e. c #4B810C",
"r. c #4A830C",
"t. c #4D820D",
"y. c #4B850C",
"u. c #4B830C",
"i. c #4F8F0A",
"p. c #4E8B0B",
"a. c #53830D",
"s. c #518A0C",
"d. c #578C0F",
"f. c #538C0E",
"g. c #5A8B0F",
"h. c #50930A",
"j. c #54920E",
"k. c #56930E",
"l. c #54920D",
"z. c #59960D",
"x. c #569A0D",
"c. c #5A9D0D",
"v. c #4F8810",
"b. c #568411",
"n. c #518810",
"m. c #5E9A11",
"M. c #61920F",
"N. c #679E0F",
"B. c #5CA50D",
"V. c #5AA00D",
"C. c #61A40C",
"Z. c #62B20C",
"A. c #62A310",
"S. c #6BA712",
"D. c #64AE11",
"F. c #71BE15",
/* pixels */
"                                                                                                                                ",
"                                                    r ~             K                                                           ",
"                                                    s _         2.l *.{                                                         ",
"                                                    g s         _ g.O.X.l                                                       ",
"                                          r @.s   c C s     l ^ >.=.p r                                                         ",
"                                        < 1 f y f p t.t j l A g W p ~             y f 9                                         ",
"                          =.        F.y > > r s ^ j 4.h ,.5 y z v f >       ,.(   y y C z                                       ",
"                        j K y.s         c l r y t , > @ 1 e f ! d.-.y o > r 9 r s > y c @.                                      ",
"                        f s j s         r y y 4 5 > & $ 0 q g C 4.^ 5 > y 9 r s s 5 h p C                                       ",
"                      M j h j g       7.5 t r 9 r 9 @ < a 0 h 4.C j p y y g f W 5 r :.r j                                       ",
"                      g d l K ,._ j K C.s y r r r 4 4 4 e w l c y r t 8 5 e.r 9 t t 9 <.l.                                      ",
"                      l 9 r j @.K C C B.l j f p y t i q 4 8 X.{ 4 5 9 y 5 s r r 9 A s i.h   &.                                  ",
"                      9 > # 1 t 4 > s / q.r M 5 d ! l { p f j C z r C 5 l 9 < 4 s A p.p l.q.h.                                  ",
"                      4 # # 4 9 4 > < s ^ r y 4 t s y.- 3 e e y c _ y r ^ j 4 1 l f r X.8 j s.                                  ",
"                        5 5 y y r 5 4 4 r h t 4 1 r ;.w 0 i y K y p f p r f 9 t 2.u.y e.a.c.-.                                  ",
"                        r y r 5 y 9 # f s ! g 4 @ > ~ p.p , 1 r 9 j v s r p y y p g f s.l.    c g l                             ",
"                      p s y u 1 5 y # s d f ) 5 o @ y l h y r r 9 } l.-.e r u I y r ~ x.N.^ h ~ K ^ M.                          ",
"                    2.4 9 y 9 5 s p r 5 r r p 1 > @ 9 9 f r r 4 p g 2.j 1 r t y 9 t z C 7.{ ] f { m.                            ",
"                j ( g 0.l g h ! K M 9 j 5 r 1 # > 4 r c s 9 > s h j j ^ j p f y 9 s f ,.m.X.j X.j                               ",
"                s 5 p d l l d h l ;.j 4 5 l p @ # > s X.s < > r v p y @./ s u 9 9 g 2.l f f f @.c.x.                            ",
"                  M r y d s r r d t 5 < p d 5 u 9 r # 8 j 1 > > # 5 r z V f t y y j V y c C p @.e.e.e.                          ",
"                    j 8 f l p 5 s g g 5 > 4 j f 4 1 > r 3 1 1 > > 9 5 z ^ l s g f t a Z ~ A p f ~ q.e.                          ",
"                      # r C ~ _ 5 r / C r 5 5 p 9 9 y z g f ; O > < > 9 r A 0.f j s 8 ^ 9 a.2.C h / S.                          ",
"                      > 1 j l j 4 5 5 s y < 1 j g r t 8 f 4 O O > > 1 > s s W t t h 8 4 y z.j p _ e.                            ",
"                        # 4 j g 5 5 u l r 1 # g g f y < 9 4 o X 8 5 s 9 ! d y 8 p p d g l A 9 8 p.p.,.,.C.                      ",
"                        1 > < 5 4 5 < u C ! ! y c T 8 & o . O q s f s s 9 l s p 9 r t l y.    < 9 l y y                         ",
"                    l 9 9 < 4 5 < < y t p t 9 5 y 4 9 & @ $ + @ > 5 r g y y l s < 5 d p   T u a h 6.e.                          ",
"            2.r d 4 j s g p d 9 > r 9 g j K 5 @ 1 < 4 o # @ + * < < 4 K g s K g d d p c ! 8.i j ^ ;.X.x.j.                      ",
"        4 s / 9 9 r 6.s p r g r < 5 1 d s / > # 4 4 @ @ @ o = 3 4 # < g s h s 8 X._ g ) j l.~ ! e.T { K 2.                      ",
"        p r 5 @ > 5 j y r r d p d j # u d g r r r r 4 # @ O = ; 5 5 r f j g d 4 j j j #.~ M y d l j T 9 c y 9                   ",
"              > # > 9 < 8 4 4 C d j A t r j y r K y 5 # $ = : ; & # s t @.! _ g h 9 Z 0.f.O.X.K ~ ^ K p ~ 9                     ",
"                  v.    h 4 y C d r / c 4 t 5 r > 4 t @ < $ = $ o o 1 t _ 9 9 i , w j D.p p.-.s j r 4 i.e.                      ",
"                        4 y s M s s / < d 5 y 9 t > r s 5 # X 7 0 k a h $ y p i p > # 9 Z.c.w.g r 9 p j s T                     ",
"                      y ,.  ~ ;.g y # @ # # 4 5 y 5 < 9 1 * * 8 p l j @ 4 y g y > > u j h 1 * 4 6.@.d s h (                     ",
"          C C l g     y     l _ s r @ o @ @ > @ 1 1 & > & & , y h l p # 5 t 5 & > 4 h r 9 > 8 c ,.K f y                         ",
"          9 d d s l < 5 i j g s d 5 @ 9 < 4 @ @ & 8 & 9 r 9 1 , r r p 9 l t 9 * ' h s 4 y 4 c 2.s y K 9.                        ",
"        y y j y 9 s > 4 4 y r y M f 5 9 r r 1 @ o < # C p p p u 9 r y s d 5 y g { { s 4 e g ,.l t j l / #                       ",
"            l 4 9 r @ @ 5 t r 1 5 r A j s t 5 @ & > @ 5 r 1 9 r 1 4 r t f r j K g C k < r 5 y r j y f s 4 r                     ",
"            5 5 4 > & . > 5 r t Z r 5 < 4 < 5 # o # @ O o # y g l y t y 4 t r s y C r s s j 9 r r 9 l l s t t                   ",
"          5 5 s s 5 < @ r 5 # > i r h 5 < > # @ < 4 # @ @ > > r f f s t p C ~ ~ *.p y s C y p 9 y l j j.0.d M                   ",
"        s r 9 y s y y < M A 4 > 5 1 s 5 4 4 < > 4 4 4 8 & > & & r 9 9 9 u ~ j f X.c g V s p j 8 y a i p.f s C                   ",
"          y p f 4 9 9 e d j 5 1 5 4 9 5 5 5 < # 4 9 p h > > & @ y f 0 ; 8 s r 9 y l c c s r y 8 c T 4 f @.r ~                   ",
"      4 t g f l y < & > > 4 y r > # & 1 t ^ _ g 4 4 7 ; @ o @ @ i h 8 4 3 P p r r l y 9 9 y r p s t r l j s t                   ",
"            j j ~ h p 9 @ # > r 5 > @ @ r ^ ~ u 7 u i h & O # > 9 1 8 9 9 f 4 1 1 j e 9 j d r r y r p h 4 < > f                 ",
"                  5 _ r 5 @ > 9 > @ > o 4 r ^ g s 9 6.8 9 $ O @ $ > & 8 ; 1 3 & > s 2.6.e.s T =.4 4 4 j 9 9 & 1 =.              ",
"                  s r ~ < & > 1 u 4 @ & & 9 4 $ O O & p $ $ @ O % % % X 7 2.,.2.h s C ,.M g j V < h h ~ _ 4 f ' r               ",
"                  g r g p 9 y i y y r 1 d > @ @ @ @ @ O @ , , * X @ $ $ 3 f l s g y s 9 ^ r h h c j j h ' p p h !               ",
"            ^ C s t r r r u 4 4 > 9 g 5 f 5 # > $ @ & @ * * + + O 6 5 5 y y K f ^ j g y 9 r s j ^ V Z t > > < r @.              ",
"              5 5 y t y 1 9 1 > * > 4 > 5 < & > < < < @ @ o . O @ 1 4 9 9 1 y s A l C p ~ t 9 _ 9 9 > 1 4 4 9 1 C C             ",
"              &   9 9 1 9 9 4 1 r 5 9 1 4 1 5 < # , O @ X X . o @ & 3 < , r y s X.C g p f p 9 1 9 9 1 9 4 1 1 < r y             ",
"                      p r 1 4 p 9 < r i 4 5 5 < @ 1 r r . O = e e.s 9 , d r g @.x.p.@.t K r & > > @ @     1     a.V             ",
"                      C g s r j 5 4 K 5 s r 5 y 9 4 9 9 > > 7 6 g s 3 + h 4 4 y.=.K *.1 , q.V.6.                                ",
"                      K     r s p y s < s l C r p y p s 1 1 ; - u y         > h r l a.! s 4 4                                   ",
"                      ~       j K s K 4 r s s 5 8 f t 9 4     -               s s r r s h                                       ",
"                                f.    2.r r t t v &.e         = O               r p r ) j                                       ",
"                                      _ r r 4 s W I 1         - X                 ! l 9 d.                                      ",
"                                        r r r X.e.  1         - X                                                               ",
"                                              y               - +                                                               ",
"                                                              : +                                                               ",
"                                                              : +                                                               ",
"                                                              : +                                                               ",
"                                                              - +                                                               ",
"                                                              - %                                                               ",
"                                                                                                                                "
};
